<?xml version="1.0" encoding="utf-8"?>
<!-- Generator: Adobe Illustrator 22.1.0, SVG Export Plug-In . SVG Version: 6.00 Build 0)  -->
<svg version="1.1" xmlns="http://www.w3.org/2000/svg" xmlns:xlink="http://www.w3.org/1999/xlink" x="0px" y="0px"
	 viewBox="0 0 1200 1200" style="enable-background:new 0 0 1200 1200;" xml:space="preserve">
<style type="text/css">
	.st0{fill:#FDDCBE;}
	.st1{fill:#594A42;}
	.st2{fill:#F5F5F5;}
	.st3{fill:#E6E6E6;}
	.st4{fill:#EB7D86;}
	.st5{fill:#D1D3D4;}
	.st6{fill:#C2532B;}
	.st7{fill:#AFA194;}
	.st8{fill:#E6E7E8;}
	.st9{fill:#B4D1C0;}
	.st10{fill:#A1C5B0;}
</style>
<g id="Layer_2">
</g>
<g id="Layer_1">
	<g>
		<g>
			<g>
				<g>
					<path class="st0" d="M546.8,608.2c0,0-16.2-218.3-169.9-138.2c0,0-27.5,54.9-19.7,158.3C486.8,643.4,546.8,608.2,546.8,608.2z"
						/>
					<path class="st1" d="M494.9,475.2c0,0-30.9,32.4-116.8,51.1l6.6,33.6c0,0-24-8.4-20.1,10.3c3.2,15.5,20.7,3.7,20.7,3.7
						s-6.2,40.3-28.1,54.4c0.9,1.5-83.7-143.1-16.5-135c0,0-2.7-25.8,41.2-52C428.1,413.7,479,433.7,494.9,475.2z"/>
					<path class="st1" d="M503.6,529.8c1.3,5.5,4.9,9.4,8.1,8.7c3.2-0.7,4.8-5.8,3.5-11.3c-1.3-5.5-4.9-9.4-8.1-8.7
						C503.9,519.2,502.4,524.3,503.6,529.8z"/>
					<path class="st1" d="M421.9,556.4c1.3,5.5,4.9,9.4,8.1,8.7c3.2-0.7,4.8-5.8,3.5-11.3c-1.3-5.5-4.9-9.4-8.1-8.7
						C422.2,545.9,420.6,550.9,421.9,556.4z"/>
				</g>
				<path class="st1" d="M382.4,744.6l6.3,47l-4,50.5c0,0,67.5,18.2,50.5-8.4c-15.7-24.6-40.2-4.2-40.2-4.2l9.6-40.3l1.6-30.3
					c0,0,81.7,3.4,140.6-13.6l41.8,2.5l1.5,53.9c0,0,66.5,10,44.6-15.7c-12.1-14.3-33.7-0.4-33.7-0.4l2.6-53.7l-49.2-5.4
					L382.4,744.6z"/>
				<g>
					<g>
						<path class="st2" d="M546.8,608.2l7.6,118.4c0,0-70.4,20.8-172,18.1l-25.2-116.3C357.2,628.3,474.6,638.7,546.8,608.2z"/>
					</g>
				</g>
				<g>
					<g>
						<polygon class="st3" points="506,629.7 510,636 505.7,644.2 515.3,712.6 497.7,729.2 480.5,714.1 496.1,645.7 489.7,638 
							492.3,632.4 						"/>
					</g>
				</g>
				<g>
					<g>
						<polygon class="st1" points="506,629.7 510,636 505.7,644.2 519.3,711.1 501.7,727.7 484.5,712.6 496.1,645.7 489.7,638 
							492.3,632.4 						"/>
					</g>
				</g>
				<g>
					<path class="st0" d="M546.8,608.2l1.4,22.4l207.5-48.4c0,0,7.4-1.5,6.8-4.5c-0.3-1.4-1.6-2-3-2.2c1.1-0.7,2.1-1.6,1.8-3
						c-0.3-1.3-1.4-1.9-2.6-2.1c1-0.6,1.8-1.6,1.5-2.8c-0.3-1.4-1.6-2-3-2.2c1.2-0.7,29.4-4.8,28-9.7c-1.4-5.1-30,3.9-30,3.9
						L546.8,608.2z"/>
				</g>
				<g>
					<g>
						<path class="st4" d="M506.1,572.6c0,0-35.1,4.1-55.4,14.1c0,0,2.3,28.7,34.8,21.4C517.7,600.9,506.1,572.6,506.1,572.6z"/>
					</g>
				</g>
			</g>
			<g>
				<path class="st0" d="M357.4,628.6l4.7,22c-61.1,37.7,1.6,75.8,30.6,88.1c1,0.4,6.8,3.3,5.5,6c-0.7,1.3-2,1.6-3.4,1.4
					c1,0.9,1.7,2.1,1,3.3c-0.6,1.2-1.8,1.5-3,1.4c0.8,0.9,1.3,1.9,0.8,3c-0.7,1.3-2,1.6-3.4,1.4c1,0.9,1.7,2.1,1,3.3
					c-1.3,2.6-4.2,1.5-6.6,0.5C318.6,732.3,277.4,673.5,357.4,628.6z"/>
			</g>
			<g>
				<path class="st2" d="M357.4,628.6l4.7,22c-6.6,4.1-11.7,8.1-15.6,12.1l-14.2-16.1C338.7,640.4,347,634.4,357.4,628.6z"/>
			</g>
		</g>
		<g>
			<path class="st2" d="M309.8,538.2c0,0-27.5-11.4-17.5-40.2c10.6-30.3,60.6-52.7,89.2-112.8c46.8-98.4,129.7-4.9,98.9,43
				L309.8,538.2z"/>
			<path class="st5" d="M512.8,497.5c-5.2-8.2-11.1-15.7-17.9-22.2c-4-10.5-10.3-19.7-18.2-27l-159.2,88.7c1.1,4.8,2.6,9.7,4.2,14.7
				l82.7-43.9l0,0C412.3,509.4,457.7,514.6,512.8,497.5z"/>
			<polygon class="st1" points="309.8,538.2 315.8,551.9 494,442 480.4,428.2 			"/>
			<path class="st1" d="M401.3,499.2c9.6,1.5,74.3,4.6,142.3-33.4C586.1,442,494,442,494,442L401.3,499.2z"/>
		</g>
		<g>
			<polygon class="st2" points="546.8,608.2 548.2,630.6 576.8,623.9 570.9,602.5 			"/>
		</g>
	</g>
	<g>
		<g>
			<g>
				<g>
					<g>
						<polygon class="st6" points="233.6,643.2 233.6,801.1 233.6,802.6 37.6,802.6 37.6,643.2 						"/>
					</g>
				</g>
				<g>
					<g>
						<path class="st2" d="M147.9,694.3c0,16.6,13.5,30.1,30.1,30.1c16.6,0,30.1-13.5,30.1-30.1c0-16.6-13.5-30.1-30.1-30.1
							C161.4,664.2,147.9,677.7,147.9,694.3z"/>
					</g>
				</g>
				<g>
					<g>
						<path class="st2" d="M63.2,694.3c0,16.6,13.5,30.1,30.1,30.1c16.6,0,30.1-13.5,30.1-30.1c0-16.6-13.5-30.1-30.1-30.1
							C76.7,664.2,63.2,677.7,63.2,694.3z"/>
					</g>
				</g>
				<g>
					<g>
						<g>
							<rect x="151.6" y="558.1" class="st1" width="52.9" height="85.1"/>
						</g>
					</g>
					<g>
						<g>
							<rect x="66.8" y="558.1" class="st1" width="52.9" height="85.1"/>
						</g>
					</g>
				</g>
			</g>
			<g>
				<g>
					<g>
						<polygon class="st7" points="0.1,802.6 637.4,802.6 502.4,941.2 0.1,941.2 						"/>
					</g>
				</g>
			</g>
			<g>
				<g>
					<g>
						<polygon class="st2" points="0.1,802.6 637.4,802.6 502.4,941.2 0.1,941.2 						"/>
					</g>
				</g>
			</g>
			<g>
				<polygon class="st2" points="74.3,802.6 233.6,802.6 233.6,801.1 233.6,643.2 				"/>
			</g>
		</g>
		<g>
			<g>
				<g>
					<polygon class="st8" points="596.5,844.6 502.4,941.2 0.1,941.2 0.1,844.6 					"/>
				</g>
			</g>
		</g>
	</g>
	<g>
		<polygon class="st2" points="637.9,802.6 305.2,802.6 166.6,941.2 502.8,941.2 		"/>
	</g>
	<g>
		<g>
			<g>
				<path class="st9" d="M672.7,918.9c0-1.8,1.4-3.2,3.2-3.2h120.9c1.8,0,3.2,1.4,3.2,3.2s-1.4,3.2-3.2,3.2H675.9
					C674.2,922.1,672.7,920.6,672.7,918.9z M857.2,918.9c0-1.8,1.4-3.2,3.2-3.2h41.4c1.8,0,3.2,1.4,3.2,3.2s-1.4,3.2-3.2,3.2h-41.4
					C858.7,922.1,857.2,920.6,857.2,918.9z"/>
			</g>
		</g>
		<g>
			<g>
				<g>
					<path class="st9" d="M598.1,888.1h35c1.8,0,3.2-1.4,3.2-3.2c0-1.8-1.4-3.2-3.2-3.2h-35c-1.8,0-3.2,1.4-3.2,3.2
						C594.9,886.7,596.3,888.1,598.1,888.1z"/>
				</g>
			</g>
			<g>
				<g>
					<path class="st9" d="M753.1,881.8h14.1c1.8,0,3.2,1.4,3.2,3.2c0,1.8-1.4,3.2-3.2,3.2h-14.1c-1.8,0-3.2-1.4-3.2-3.2
						C749.9,883.2,751.3,881.8,753.1,881.8z"/>
				</g>
				<g>
					<path class="st9" d="M793.1,881.8h61.2c1.8,0,3.2,1.4,3.2,3.2c0,1.8-1.4,3.2-3.2,3.2h-61.2c-1.8,0-3.2-1.4-3.2-3.2
						C789.9,883.2,791.3,881.8,793.1,881.8z"/>
				</g>
				<g>
					<path class="st9" d="M647.2,881.8h25.9c1.8,0,3.2,1.4,3.2,3.2c0,1.8-1.4,3.2-3.2,3.2h-25.9c-1.8,0-3.2-1.4-3.2-3.2
						C644,883.2,645.4,881.8,647.2,881.8z"/>
				</g>
				<g>
					<path class="st9" d="M694.2,881.8h7.1c1.8,0,3.2,1.4,3.2,3.2c0,1.8-1.4,3.2-3.2,3.2h-7.1c-1.8,0-3.2-1.4-3.2-3.2
						C691.1,883.2,692.5,881.8,694.2,881.8z"/>
				</g>
			</g>
		</g>
	</g>
	<g>
		<g>
			<g>
				<g>
					<path class="st9" d="M313.2,1078.6h60.4c1.8,0,3.2-1.4,3.2-3.2c0-1.8-1.4-3.2-3.2-3.2h-60.4c-1.8,0-3.2,1.4-3.2,3.2
						C310.1,1077.2,311.5,1078.6,313.2,1078.6z"/>
				</g>
			</g>
			<g>
				<g>
					<path class="st9" d="M461,1078.6h60.4c1.8,0,3.2-1.4,3.2-3.2c0-1.8-1.4-3.2-3.2-3.2H461c-1.8,0-3.2,1.4-3.2,3.2
						C457.8,1077.2,459.2,1078.6,461,1078.6z"/>
				</g>
			</g>
		</g>
		<g>
			<g>
				<path class="st9" d="M247.3,1041.5c0-1.8,1.4-3.2,3.2-3.2h35c1.8,0,3.2,1.4,3.2,3.2c0,1.8-1.4,3.2-3.2,3.2h-35
					C248.7,1044.7,247.3,1043.2,247.3,1041.5z M301.4,1041.5c0-1.8,1.4-3.2,3.2-3.2h92.2c1.8,0,3.2,1.4,3.2,3.2
					c0,1.8-1.4,3.2-3.2,3.2h-92.2C302.8,1044.7,301.4,1043.2,301.4,1041.5z M422.3,1041.5c0-1.8,1.4-3.2,3.2-3.2h33.2
					c1.8,0,3.2,1.4,3.2,3.2c0,1.8-1.4,3.2-3.2,3.2h-33.2C423.7,1044.7,422.3,1043.2,422.3,1041.5z"/>
			</g>
		</g>
	</g>
	<g>
		<g>
			<g>
				<g>
					<path class="st9" d="M1042.2,1048.9h-64.4c-1.9,0-3.4-1.5-3.4-3.4c0-1.9,1.5-3.4,3.4-3.4h64.4c1.9,0,3.4,1.5,3.4,3.4
						C1045.6,1047.4,1044.1,1048.9,1042.2,1048.9z"/>
				</g>
			</g>
			<g>
				<g>
					<path class="st9" d="M953,1048.9h-64.4c-1.9,0-3.4-1.5-3.4-3.4c0-1.9,1.5-3.4,3.4-3.4H953c1.9,0,3.4,1.5,3.4,3.4
						C956.4,1047.4,954.9,1048.9,953,1048.9z"/>
				</g>
			</g>
		</g>
		<g>
			<g>
				<path class="st9" d="M1088.5,1012.8h-37.3c-1.9,0-3.4-1.5-3.4-3.4c0-1.9,1.5-3.4,3.4-3.4h37.3c1.9,0,3.4,1.5,3.4,3.4
					C1091.9,1011.2,1090.4,1012.8,1088.5,1012.8z M1030.9,1012.8h-74.5c-1.9,0-3.4-1.5-3.4-3.4c0-1.9,1.5-3.4,3.4-3.4h74.5
					c1.9,0,3.4,1.5,3.4,3.4C1034.3,1011.2,1032.8,1012.8,1030.9,1012.8z M936.1,1012.8h-1.1c-1.9,0-3.4-1.5-3.4-3.4
					c0-1.9,1.5-3.4,3.4-3.4h1.1c1.9,0,3.4,1.5,3.4,3.4C939.5,1011.2,937.9,1012.8,936.1,1012.8z"/>
			</g>
		</g>
	</g>
	<g>
		<g>
			<path class="st10" d="M815.9,345.7c-0.5-13.2-11.4-23.8-24.7-23.8c-2.8,0-5.6,0.5-8.1,1.4c-5.1-12.2-17.1-20.8-31.2-20.8
				c-1.7,0-3.3,0.2-4.9,0.4c0-0.1,0-0.3,0-0.4c0-26.1-21.2-47.3-47.3-47.3c-26.1,0-47.3,21.2-47.3,47.3c-18.7,0-33.8,15.1-33.8,33.8
				c0,3.3,0.5,6.4,1.4,9.4H815.9z"/>
		</g>
	</g>
	<g>
		<g>
			<path class="st10" d="M945.9,369.4c0.4-9.6,8.3-17.3,18-17.3c2.1,0,4,0.4,5.9,1c3.7-8.9,12.5-15.1,22.7-15.1
				c1.2,0,2.4,0.1,3.5,0.3c0-0.1,0-0.2,0-0.3c0-19,15.4-34.3,34.3-34.3c19,0,34.3,15.4,34.3,34.3c13.6,0,24.5,11,24.5,24.5
				c0,2.4-0.3,4.7-1,6.9H945.9z"/>
		</g>
	</g>
	<g>
		<g>
			<path class="st10" d="M109.4,269.7c0.4-9.6,8.3-17.3,18-17.3c2.1,0,4,0.4,5.9,1c3.7-8.9,12.5-15.1,22.7-15.1
				c1.2,0,2.4,0.1,3.5,0.3c0-0.1,0-0.2,0-0.3c0-19,15.4-34.3,34.3-34.3c19,0,34.3,15.4,34.3,34.3c13.6,0,24.5,11,24.5,24.5
				c0,2.4-0.3,4.7-1,6.9H109.4z"/>
		</g>
	</g>
	<g>
		<g>
			<path class="st10" d="M942.6,137.8c-20.2,0-37.1,14.4-40.9,33.5c-4.7-4.9-11.4-7.9-18.7-7.9c-13.7,0-25,10.7-25.9,24.2l126.7-0.3
				c0.5-2.5,0.7-5.2,0.7-7.9C984.5,156.4,965.7,137.7,942.6,137.8z"/>
		</g>
	</g>
	<g>
		<g>
			<path class="st10" d="M424,103.3c20.2,0,37.1,14.4,40.9,33.5c4.7-4.9,11.4-7.9,18.7-7.9c13.7,0,25,10.7,25.9,24.2l-126.7-0.3
				c-0.5-2.5-0.7-5.2-0.7-7.9C382.1,121.9,400.9,103.2,424,103.3z"/>
		</g>
	</g>
	<g>
		<g>
			<g>
				<path class="st10" d="M191.1,538.3c4.7-4.1,5.3-11.2,1.2-16c-0.3-0.4-0.7-0.8-1.1-1.1c0.2-2.9-0.7-5.9-2.8-8.3
					c-4.2-4.9-11.6-5.5-16.5-1.3c-1.8,1.5-3,3.4-3.6,5.5c-1.9,0.1-3.7,0.8-5.3,2.1c-3.7,3.2-4.1,8.8-1,12.5c0.9,1,2,1.8,3.1,2.3
					c0.1,1.9,0.8,3.8,2.2,5.4c3.3,3.9,9.2,4.4,13.1,1.1C184.1,541.6,188.1,540.9,191.1,538.3z"/>
			</g>
		</g>
	</g>
	<g>
		<g>
			<g>
				<path class="st10" d="M190.3,479.8c6.9-5.9,7.7-16.3,1.8-23.2c-0.2-0.3-0.5-0.5-0.7-0.8c4.2-5.4,4.1-13.2-0.5-18.7
					c-5.2-6.1-14.4-6.9-20.6-1.9c-7-7.3-18.5-7.9-26.2-1.3c-7.3,6.3-8.7,16.9-3.6,24.8c-2,6.1-0.9,13.2,3.6,18.4
					c6.5,7.6,17.6,8.8,25.6,3.1C175.7,485,184.3,484.9,190.3,479.8z"/>
			</g>
		</g>
	</g>
	<g>
		<g>
			<g>
				<path class="st10" d="M102.2,538.3c4.7-4.1,5.3-11.2,1.2-16c-0.3-0.4-0.7-0.8-1.1-1.1c0.2-2.9-0.7-5.9-2.8-8.3
					c-4.2-4.9-11.6-5.5-16.5-1.3c-1.8,1.5-3,3.4-3.6,5.5c-1.9,0.1-3.7,0.8-5.3,2.1c-3.7,3.2-4.1,8.8-1,12.5c0.9,1,2,1.8,3.1,2.3
					c0.1,1.9,0.8,3.8,2.2,5.4c3.3,3.9,9.2,4.4,13.1,1.1C95.2,541.6,99.2,540.9,102.2,538.3z"/>
			</g>
		</g>
	</g>
	<g>
		<g>
			<g>
				<path class="st10" d="M71.6,479.8c6.9-5.9,7.7-16.3,1.8-23.2c-0.2-0.3-0.5-0.5-0.7-0.8c4.2-5.4,4.1-13.2-0.5-18.7
					c-5.2-6.1-14.4-6.9-20.6-1.9c-7-7.3-18.5-7.9-26.2-1.3c-7.3,6.3-8.7,16.9-3.6,24.8c-2,6.1-0.9,13.2,3.6,18.4
					c6.5,7.6,17.6,8.8,25.6,3.1C57,485,65.6,484.9,71.6,479.8z"/>
			</g>
		</g>
	</g>
</g>
</svg>
