<?xml version="1.0" encoding="utf-8"?>
<!-- Generator: Adobe Illustrator 22.1.0, SVG Export Plug-In . SVG Version: 6.00 Build 0)  -->
<svg version="1.1" xmlns="http://www.w3.org/2000/svg" xmlns:xlink="http://www.w3.org/1999/xlink" x="0px" y="0px"
	 viewBox="0 0 1200 1200" style="enable-background:new 0 0 1200 1200;" xml:space="preserve">
<style type="text/css">
	.st0{fill:#FDDBBB;}
	.st1{fill:#E6E6E6;}
	.st2{fill:#C9482A;}
	.st3{fill:#F5F5F5;}
	.st4{fill:#414042;}
	.st5{fill:#6D6E71;}
	.st6{fill:#4F423A;}
	.st7{fill:#EB7D86;}
	.st8{fill:#BFD6CB;}
</style>
<g id="Layer_2">
	<g>
		<g>
			<g>
				<g>
					<g>
						<g>
							<path class="st0" d="M1046.2,250.8c0,0,10.4-34.5-13.8-36.8c-24.1-2.3-20.8,31.9-20.8,31.9L1046.2,250.8z"/>
						</g>
					</g>
				</g>
			</g>
		</g>
	</g>
	<g>
		<g>
			<path class="st1" d="M129.6,688.3c15.5,16.6,32.7,28.5,50.3,37.9l101.4-136.1c-39.3,23.3-77.1,43.4-117.2,49.2L129.6,688.3z"/>
			<path class="st1" d="M857.1,330.6c-2.6-8.7-5.8-17.1-9.6-25.2c13.9-5.2,25.8-11.7,35.9-19.1l53.7-90.5c4-22.4,2.5-38.9,2.5-38.9
				c-30.8,23.8-50.7,30.8-67.3,29l-192.5,301l-169-60c3,39.8,7.7,69,8.7,70.7c0,0,0.1-0.1,0.1-0.1c0,0,0,0.1,0,0.1l-7.4-1.1
				c0,0-15.7-1.3-36.1-0.3L712.7,574L857.1,330.6z"/>
		</g>
		<g>
			<g>
				<path class="st2" d="M549.9,487.1c-192-1.8-287.3,181.1-434.3,135.4c71.7,159.8,241.4,76,237,240.2
					c195.4,40.8,298.3-184,388.8-169.5L549.9,487.1z"/>
				<path class="st1" d="M538.6,487.3c0.9,4.8,1.6,7.6,1.9,8.2c0,0,0.1-0.1,0.1-0.1c0,0,0,0.1,0,0.1l-7.4-1
					c0,0-247.9-14.4-53.3,171.3c-4.2,9.6-8.7,18.9-13.3,27.7l0,0l-36.3,62.6l-84.7,53c5,14.3,7.5,31.8,6.9,53.7
					c5.1,1.1,10,1.9,15,2.6c6.5-21.6-7.9-47.9-7.9-47.9l93.6-42l35.5-44.1c36.1,23.4,69.4,41.9,97.9,56.3
					c61.3-49.2,109.6-101.6,154.7-94.4L549.9,487.1C546.1,487.1,542.3,487.2,538.6,487.3z M497.1,621.9
					c-33.2-31.3-94.6-100.7,26.8-88.7C517.8,557.1,508.7,589.3,497.1,621.9z"/>
				<path class="st1" d="M142.4,645.6c0,0,21,36.3,52.8,54.8c0,0-24.3-25.8-29.6-40.6c0,0,107.9-9.3,176.5-90.8
					C342.1,569.1,250.4,648.1,142.4,645.6z"/>
			</g>
			<g>
				<g>
					<g>
						<g>
							<g>
								<g>
									<g>
										<g>
											<g>
												<polygon class="st3" points="1008.3,251.1 1009.2,241.8 1048.5,248.5 1046.9,257.7 												"/>
											</g>
										</g>
									</g>
								</g>
							</g>
						</g>
					</g>
					<g>
						<g>
							<g>
								<g>
									<g>
										<g>
											<g>
												<path class="st4" d="M847.6,571c0,0,168.8-102.8,202.4-315.6l-43.4-9.3c0,0-26.7,182.5-157.4,275.6L847.6,571z"/>
											</g>
										</g>
									</g>
								</g>
							</g>
						</g>
					</g>
					<g>
						<path class="st1" d="M849.2,521.6l-1.6,49.3c0,0,22.4-13.6,52.4-41.2c0-18.6-0.9-36.5-1.9-51.6
							C883.7,493.8,867.5,508.6,849.2,521.6z"/>
					</g>
					<g>
						<g>
							<g>
								<g>
									<g>
										<g>
											<g>
												<path class="st5" d="M1040.5,276.2c0.1-2.2-1.7-4.1-3.9-4.2c-2.2-0.1-4.1,1.7-4.2,3.9c-0.1,2.2,1.7,4.1,3.9,4.2
													C1038.5,280.2,1040.4,278.5,1040.5,276.2z"/>
											</g>
										</g>
									</g>
								</g>
							</g>
						</g>
					</g>
					<g>
						<g>
							<g>
								<g>
									<g>
										<g>
											<g>
												<path class="st5" d="M1043.5,262.7c0.1-2.2-1.7-4.1-3.9-4.2c-2.2-0.1-4.1,1.7-4.2,3.9c-0.1,2.2,1.7,4.1,3.9,4.2
													C1041.5,266.7,1043.4,265,1043.5,262.7z"/>
											</g>
										</g>
									</g>
								</g>
							</g>
						</g>
					</g>
				</g>
			</g>
			<g>
				<g>
					<g>
						<g>
							<g>
								<g>
									<g>
										<path class="st0" d="M540.2,495.7c0,0,23.7-289.8,202.6-279.4c228.1,13.2,121.3,338.8,121.3,338.8L540.2,495.7z"/>
									</g>
								</g>
							</g>
						</g>
					</g>
				</g>
			</g>
			<g>
				<g>
					<g>
						<g>
							<g>
								<g>
									<g>
										<g>
											<g>
												<g>
													<path class="st4" d="M726.6,821.9L657.4,900l-93.1,41.9c0,0,40.6,21.3,12.3,61.6c-25.1,35.7-38.6-67-38.6-67
														l101.3-56.1l40.2-54.6c0,0-84.7-28.1-196.5-104.6l-36.6,43.2l-94.7,39.5c0,0,30.5,59.5-22.9,72.1
														c-28,6.6,3.6-77.6,3.6-77.6l91.6-54l37.9-61.7C462,682.6,582.5,707,726.6,821.9z"/>
												</g>
											</g>
										</g>
									</g>
								</g>
							</g>
						</g>
						<g>
							<g>
								<g>
									<g>
										<g>
											<g>
												<g>
													<path class="st4" d="M641.9,502.2L721.5,652l121.4-115.5l29.1,5.2c0,0-28.7,141.4-145.3,280.3L462,682.6
														c43.6-77.1,71.8-197.1,71.8-197.1L641.9,502.2z"/>
												</g>
											</g>
										</g>
									</g>
								</g>
							</g>
						</g>
						<g>
							<g>
								<g>
									<g>
										<g>
											<g>
												<g>
													<g>
														<g>
															<polygon class="st3" points="842.9,536.4 721.5,652 641.9,502.2 															"/>
														</g>
													</g>
												</g>
											</g>
										</g>
									</g>
								</g>
								<g>
									<g>
										<g>
											<g>
												<g>
													<g>
														<g>
															<polygon class="st5" points="842.9,536.4 834.4,593.4 801.2,594.4 798.2,638.3 721.5,652 															"/>
														</g>
													</g>
												</g>
											</g>
										</g>
									</g>
								</g>
								<g>
									<g>
										<g>
											<g>
												<g>
													<g>
														<g>
															<polygon class="st5" points="721.5,652 657.5,605.9 665.4,574.9 633.8,556.8 641.9,502.2 															"/>
														</g>
													</g>
												</g>
											</g>
										</g>
									</g>
								</g>
								<g>
									<g>
										<g>
											<g>
												<g>
													<g>
														<g>
															<polygon class="st4" points="768.2,552.2 760.4,534.5 733.3,528.8 719.9,546.1 728.7,560.9 703.5,618.3 721.5,652 
																753.7,621.3 752.8,565.7 															"/>
														</g>
													</g>
												</g>
											</g>
										</g>
									</g>
								</g>
							</g>
						</g>
						<g>
							<g>
								<g>
									<g>
										<g>
											<g>
												<g>
													<path class="st5" d="M703.9,676c0.2,5.2,4.5,9.2,9.7,9c5.2-0.2,9.2-4.5,9-9.7c-0.2-5.1-4.5-9.2-9.7-9
														C707.8,666.6,703.7,670.9,703.9,676z"/>
												</g>
											</g>
										</g>
									</g>
								</g>
							</g>
						</g>
						<g>
							<g>
								<g>
									<g>
										<g>
											<g>
												<g>
													<path class="st5" d="M688.8,711.2c0.2,5.2,4.5,9.2,9.7,9c5.2-0.2,9.2-4.5,9-9.7c-0.2-5.1-4.5-9.2-9.7-9
														C692.7,701.7,688.6,706,688.8,711.2z"/>
												</g>
											</g>
										</g>
									</g>
								</g>
							</g>
						</g>
					</g>
				</g>
			</g>
			<g>
				<g>
					<g>
						<g>
							<g>
								<g>
									<g>
										<g>
											<g>
												<path class="st6" d="M961.2,145.9c0,0,21.5,229.6-304.1,140.8L638.5,357c0,0-24.1-31.8-37.4-1.2
													c-15.3,35.2,24.3,25.7,24.3,25.7s-45.5,79.6-84.3,105.2c-3.4-6.2-53-347,89.1-303.9c2.7-8.4,30.7-62.8,116.3-61.6
													C876.1,122.8,861.1,223.3,961.2,145.9z"/>
											</g>
										</g>
									</g>
								</g>
							</g>
						</g>
					</g>
				</g>
			</g>
			<path class="st6" d="M718.1,366c-0.2,12.9-5.7,23.2-12.3,23.2c-6.7-0.1-11.9-10.6-11.8-23.4c0.2-12.9,5.7-23.2,12.3-23.2
				C713,342.7,718.2,353.2,718.1,366z"/>
			<path class="st6" d="M859,366.4c-0.2,12.9-5.7,23.2-12.3,23.1c-6.7-0.1-11.9-10.6-11.8-23.4c0.2-12.9,5.7-23.2,12.3-23.2
				C853.9,343.1,859.1,353.6,859,366.4z"/>
			<g>
				<g>
					<g>
						<g>
							<path class="st0" d="M484.2,657c0,0,23.8,30.1,42.1,8.2c18.3-21.9-18.4-33.9-18.4-33.9L484.2,657z"/>
						</g>
					</g>
				</g>
				<g>
					<polygon class="st3" points="505.1,626.4 512.6,631.7 485.2,659.5 478.5,653 					"/>
				</g>
				<g>
					<path class="st4" d="M533.8,485.5c0,0-249.5-21.1-55.4,172.2l32.3-30.5c0,0-144.3-124.1,15.7-102.8L533.8,485.5z"/>
				</g>
				<g>
					<path class="st5" d="M466.5,638c1.8,1.3,4.3,1,5.7-0.8c1.3-1.8,1-4.4-0.8-5.7c-1.8-1.3-4.3-1-5.7,0.8
						C464.3,634.1,464.7,636.6,466.5,638z"/>
				</g>
				<g>
					<path class="st5" d="M475.9,648.1c1.8,1.3,4.3,1,5.7-0.8c1.3-1.8,1-4.3-0.8-5.7c-1.8-1.3-4.3-1-5.7,0.8
						C473.8,644.2,474.2,646.7,475.9,648.1z"/>
				</g>
			</g>
			<g>
				<g>
					<path class="st7" d="M819.7,438.1c0,0-61.1-9.9-100.1-2.7c0,0-9.8,49.6,48.6,52.8C826,491.5,819.7,438.1,819.7,438.1z"/>
				</g>
			</g>
		</g>
	</g>
	<path class="st8" d="M98.1,947.6c0,0,10-4.9,25-12c15-7,35-16.4,55-25.7c10-4.6,20-9.3,29.4-13.7c9.4-4.4,18.1-8.5,25.7-12
		c7.5-3.5,13.8-6.4,18.2-8.4c4.4-2,7-3.1,7-3.1s-2.3,1.6-6.3,4.3c-4,2.7-9.9,6.5-17,10.7c-1.8,1.1-3.6,2.2-5.6,3.3
		c-2,1.1-4,2.2-6.1,3.4c-4.2,2.3-8.5,4.8-13.2,7.2c-4.6,2.4-9.3,5-14.3,7.3c-4.9,2.4-9.9,4.9-14.9,7.2c-5,2.3-10.1,4.6-15.1,6.8
		c-5,2.3-10,4.2-14.8,6.2c-4.8,2-9.5,3.8-14,5.5c-4.5,1.7-8.7,3.2-12.6,4.6C108.9,944.8,98.1,947.6,98.1,947.6z"/>
	<path class="st8" d="M50,1078.9c0,0,17.7-8.9,44.4-21.8c6.7-3.2,13.9-6.7,21.6-10.3c7.7-3.6,15.8-7.5,24.1-11.5
		c16.7-7.9,34.6-16.3,52.5-24.8c17.9-8.4,35.7-16.8,52.5-24.7c8.4-4,16.4-7.8,24.1-11.4c7.7-3.7,14.9-7.1,21.6-10.3
		c6.7-3.2,12.7-6.2,18.2-8.8c2.7-1.3,5.2-2.5,7.6-3.7c2.3-1.2,4.5-2.2,6.4-3.2c7.8-3.8,12.2-6,12.2-6s-4.2,2.6-11.5,7.2
		c-1.8,1.1-3.9,2.4-6.1,3.8c-2.3,1.3-4.7,2.7-7.3,4.3c-5.2,3-11.1,6.5-17.6,10c-6.5,3.6-13.5,7.5-21.1,11.4
		c-7.5,3.9-15.4,8.2-23.8,12.3c-8.3,4.1-16.8,8.6-25.6,12.7c-8.8,4.2-17.7,8.5-26.6,12.8c-9,4.1-18,8.3-26.8,12.4
		c-8.8,4.1-17.6,7.9-26.1,11.7c-8.5,3.8-16.7,7.3-24.5,10.6c-7.8,3.3-15.2,6.4-22.1,9.3c-13.7,5.7-25.2,10.2-33.3,13.3
		C54.6,1077.2,50,1078.9,50,1078.9z"/>
	<path class="st8" d="M264.7,1079c0,0,11.7-5.4,29.2-13.3c17.5-7.9,40.9-18.4,64.3-28.9c23.4-10.5,46.8-20.9,64.3-28.7
		c8.8-3.9,16.2-7.1,21.3-9.3c5.2-2.2,8.2-3.4,8.2-3.4s-2.7,1.7-7.5,4.6c-4.8,2.9-11.7,7-20.2,11.7c-4.2,2.3-8.8,4.9-13.7,7.4
		c-4.9,2.5-10,5.3-15.5,7.9c-5.4,2.6-10.9,5.5-16.7,8.1c-5.7,2.6-11.5,5.4-17.4,8c-5.9,2.6-11.8,5.1-17.6,7.6
		c-5.8,2.5-11.6,4.8-17.2,7c-5.6,2.3-11,4.3-16.2,6.3c-5.2,1.9-10.1,3.7-14.6,5.3c-9.1,3.2-16.8,5.6-22.1,7.3
		C267.8,1078.2,264.7,1079,264.7,1079z"/>
	<path class="st0" d="M1012.1,233c0,0,2.5-18.3,8.5-18.1c6,0.1,1.9,17.5,1.9,17.5L1012.1,233z"/>
</g>
<g id="Layer_1">
</g>
</svg>
