<?xml version="1.0" encoding="utf-8"?>
<!-- Generator: Adobe Illustrator 22.1.0, SVG Export Plug-In . SVG Version: 6.00 Build 0)  -->
<svg version="1.1" xmlns="http://www.w3.org/2000/svg" xmlns:xlink="http://www.w3.org/1999/xlink" x="0px" y="0px"
	 viewBox="0 0 1200 1200" style="enable-background:new 0 0 1200 1200;" xml:space="preserve">
<style type="text/css">
	.st0{fill:#F5F5F5;}
	.st1{fill:#4D4D4D;}
	.st2{fill:#AB4F2E;}
	.st3{fill:#F1A64B;}
	.st4{fill:#FDDBBB;}
	.st5{fill:#EBEBEB;}
	.st6{fill:#EB7D86;}
</style>
<g id="Layer_2">
</g>
<g id="Layer_1">
	<g>
		<g>
			<polygon class="st0" points="275.6,1008.5 425.7,939.5 361.5,827.2 245.9,865 			"/>
		</g>
	</g>
	<g>
		<g>
			<g>
				<g>
					<polygon class="st1" points="413.5,894.2 306.6,943.7 307.5,945.9 412.4,897.3 					"/>
				</g>
			</g>
			<g>
				<g>
					<polygon class="st1" points="408.1,887.9 303.2,936.5 304.2,938.6 411.1,889.1 					"/>
				</g>
			</g>
			<g>
				<g>
					
						<rect x="299.9" y="913.6" transform="matrix(0.9075 -0.4201 0.4201 0.9075 -351.7946 235.5392)" class="st2" width="117.8" height="5.7"/>
				</g>
			</g>
		</g>
		<g>
			<g>
				<g>
					<polygon class="st3" points="307.5,945.9 308.4,942.9 305.4,941.2 306.1,937.7 303.2,936.5 295.7,943.5 297.3,947.1 					"/>
				</g>
			</g>
			<g>
				<g>
					<polygon class="st1" points="297.3,947.1 295.7,943.5 291,947.8 					"/>
				</g>
			</g>
		</g>
	</g>
	<g>
		<g>
			<path class="st4" d="M301.8,862.6c0,0,21.4,46.1,51.7,23.6c30.3-22.6-13.2-49.4-13.2-49.4L301.8,862.6z"/>
		</g>
	</g>
	<g>
		<polygon class="st0" points="340.5,829.7 347.9,840 303.4,871.5 295.6,858.1 		"/>
	</g>
	<g>
		<g>
			<g>
				<g>
					<path class="st3" d="M329.1,338.9c-1.5,13.1-0.6,30.6,2.8,52.4c3.4,21.8,7.9,38.8,13.3,50.8c14.8,36.8,32.2,32.1,37.7,31.2
						l5.1-0.8c4.1-0.6,6.8-4.4,6.2-8.5l-4.2-27.2c-0.6-4.1-4.4-6.8-8.5-6.2l-5.4,0.9c-7.5,1.2-11.4-1.4-13.1-6.1l0,0
						c-2.9-8.6-5.9-20.7-8.5-37.6c-2.6-16.9-3.4-29.3-3.3-38.4l0,0c0.1-5,3.1-8.7,10.6-9.8l5.4-0.8c4.1-0.6,6.8-4.4,6.2-8.5
						l-4.2-27.2c-0.6-4.1-4.4-6.8-8.5-6.2l-5.1,0.8C350,298.6,332,299.4,329.1,338.9z"/>
				</g>
			</g>
		</g>
	</g>
	<g>
		<g>
			<path class="st4" d="M313.3,374c0,0,40.1-18.5,47.5,13.4c7.4,32-36.5,25.3-36.5,25.3L313.3,374z"/>
		</g>
	</g>
	<g>
		<polygon class="st0" points="304.7,374.6 314,371.9 326,415 317.8,417.2 		"/>
	</g>
	<g>
		<g>
			<g>
				<g>
					<path class="st1" d="M870.1,260.9l5.2-35.2c0.4-2.5,2.7-4.3,5.2-3.9c2.5,0.4,4.3,2.7,3.9,5.2l-5.2,35.2l0.6,21.5l-2.6,17.8
						l-16.4-2.4l2.6-17.8L870.1,260.9z"/>
				</g>
			</g>
		</g>
		<g>
			<g>
				<g>
					<g>
						<polygon class="st2" points="848.1,421.3 858.1,352.9 850.4,332.1 855.5,297.5 891.5,302.9 868.9,456.8 832.9,451.4 
							834.4,441 						"/>
					</g>
				</g>
			</g>
			<g>
				<g>
					<g>
						<polygon class="st3" points="790.2,323.2 795.2,288.7 855.5,297.5 850.4,332.1 858.1,352.9 848.1,421.3 834.4,441 
							832.9,451.4 772.7,442.6 774.2,432.2 787.9,412.5 797.9,344 						"/>
					</g>
				</g>
			</g>
		</g>
		<g>
			<g>
				<g>
					<g>
						<g>
							
								<rect x="822.1" y="358.1" transform="matrix(0.1456 -0.9893 0.9893 0.1456 344.6594 1128.1008)" class="st2" width="6.6" height="12.9"/>
						</g>
					</g>
				</g>
				<g>
					<g>
						<g>
							
								<rect x="823.3" y="350.3" transform="matrix(0.145 -0.9894 0.9894 0.145 353.6991 1122.8777)" class="st2" width="6.6" height="12.9"/>
						</g>
					</g>
				</g>
				<g>
					<g>
						<g>
							
								<rect x="834.7" y="375.7" transform="matrix(0.145 -0.9894 0.9894 0.145 338.3504 1155.849)" class="st2" width="6.6" height="12.9"/>
						</g>
					</g>
				</g>
				<g>
					<g>
						<g>
							
								<rect x="821" y="365.8" transform="matrix(0.1452 -0.9894 0.9894 0.1452 336.3458 1133.7803)" class="st2" width="6.6" height="12.9"/>
						</g>
					</g>
				</g>
				<g>
					<g>
						<g>
							
								<rect x="808.5" y="348.1" transform="matrix(0.145 -0.9894 0.9894 0.145 343.2072 1106.3798)" class="st2" width="6.6" height="12.9"/>
						</g>
					</g>
				</g>
				<g>
					<g>
						<g>
							
								<rect x="838.1" y="352.5" transform="matrix(0.1452 -0.9894 0.9894 0.1452 364.1084 1139.3263)" class="st2" width="6.6" height="12.9"/>
						</g>
					</g>
				</g>
				<g>
					<g>
						<g>
							
								<rect x="835.8" y="368" transform="matrix(0.1456 -0.9893 0.9893 0.1456 346.5331 1150.0848)" class="st2" width="6.6" height="12.9"/>
						</g>
					</g>
				</g>
				<g>
					<g>
						<g>
							
								<rect x="806.2" y="363.6" transform="matrix(0.1452 -0.9894 0.9894 0.1452 325.8235 1117.2621)" class="st2" width="6.6" height="12.9"/>
						</g>
					</g>
				</g>
				<g>
					<g>
						<g>
							
								<rect x="837" y="360.2" transform="matrix(0.1452 -0.9894 0.9894 0.1452 355.4687 1144.8)" class="st2" width="6.6" height="12.9"/>
						</g>
					</g>
				</g>
				<g>
					<g>
						<g>
							
								<rect x="807.3" y="355.9" transform="matrix(0.1451 -0.9894 0.9894 0.1451 334.4653 1111.7888)" class="st2" width="6.6" height="12.9"/>
						</g>
					</g>
				</g>
				<g>
					<g>
						<g>
							
								<rect x="805.1" y="371.3" transform="matrix(0.145 -0.9894 0.9894 0.145 317.3614 1122.8495)" class="st2" width="6.6" height="12.9"/>
						</g>
					</g>
				</g>
				<g>
					<g>
						<g>
							
								<rect x="819.9" y="373.5" transform="matrix(0.145 -0.9894 0.9894 0.145 327.8782 1139.3639)" class="st2" width="6.6" height="12.9"/>
						</g>
					</g>
				</g>
			</g>
			<g>
				<g>
					<g>
						<g>
							
								<rect x="816.8" y="394.9" transform="matrix(0.145 -0.9894 0.9894 0.145 304.0824 1154.5205)" class="st2" width="6.6" height="12.9"/>
						</g>
					</g>
				</g>
				<g>
					<g>
						<g>
							
								<rect x="817.9" y="387.1" transform="matrix(0.145 -0.9894 0.9894 0.145 312.6566 1149.0021)" class="st2" width="6.6" height="12.9"/>
						</g>
					</g>
				</g>
				<g>
					<g>
						<g>
							
								<rect x="815.6" y="402.6" transform="matrix(0.1455 -0.9894 0.9894 0.1455 295.0358 1159.7096)" class="st2" width="6.6" height="12.9"/>
						</g>
					</g>
				</g>
				<g>
					<g>
						<g>
							
								<rect x="803.1" y="385" transform="matrix(0.1451 -0.9894 0.9894 0.1451 302.0515 1132.4276)" class="st2" width="6.6" height="12.9"/>
						</g>
					</g>
				</g>
				<g>
					<g>
						<g>
							
								<rect x="832.7" y="389.3" transform="matrix(0.1451 -0.9894 0.9894 0.1451 323.1428 1165.4962)" class="st2" width="6.6" height="12.9"/>
						</g>
					</g>
				</g>
				<g>
					<g>
						<g>
							
								<rect x="830.4" y="404.8" transform="matrix(0.1447 -0.9895 0.9895 0.1447 306.176 1176.6567)" class="st2" width="6.6" height="12.9"/>
						</g>
					</g>
				</g>
				<g>
					<g>
						<g>
							
								<rect x="800.8" y="400.4" transform="matrix(0.1452 -0.9894 0.9894 0.1452 284.8028 1143.3921)" class="st2" width="6.6" height="12.9"/>
						</g>
					</g>
				</g>
				<g>
					<g>
						<g>
							
								<rect x="831.6" y="397" transform="matrix(0.1453 -0.9894 0.9894 0.1453 314.3202 1170.8452)" class="st2" width="6.6" height="12.9"/>
						</g>
					</g>
				</g>
				<g>
					<g>
						<g>
							
								<rect x="801.9" y="392.7" transform="matrix(0.1449 -0.9894 0.9894 0.1449 293.5993 1138.0309)" class="st2" width="6.6" height="12.9"/>
						</g>
					</g>
				</g>
			</g>
		</g>
		<g>
			<g>
				<g>
					<path class="st0" d="M799.4,314.6c-0.4,2.9,1.6,5.6,4.5,6l34.2,5c2.9,0.4,5.6-1.6,6-4.5l2.2-15.1c0.4-2.9-1.6-5.6-4.5-6.1
						l-34.2-5c-2.9-0.4-5.6,1.6-6,4.5L799.4,314.6z"/>
				</g>
			</g>
		</g>
		<g>
			<g>
				<g>
					<g>
						<g>
							<path class="st2" d="M809.4,301.8c-0.7-0.1-1.1-0.7-1-1.4c0.1-0.7,0.7-1.1,1.4-1c0.7,0.1,1.1,0.7,1,1.4
								C810.7,301.4,810,301.9,809.4,301.8L809.4,301.8z M816.6,302.8c-0.7-0.1-1.1-0.7-1-1.4c0.1-0.7,0.7-1.1,1.4-1
								c0.7,0.1,1.1,0.7,1,1.4C817.9,302.5,817.2,302.9,816.6,302.8L816.6,302.8z M823.8,303.9c-0.7-0.1-1.1-0.7-1-1.4
								c0.1-0.7,0.7-1.1,1.4-1c0.7,0.1,1.1,0.7,1,1.4C825,303.5,824.4,304,823.8,303.9L823.8,303.9z M831,305
								c-0.7-0.1-1.1-0.7-1-1.4c0.1-0.7,0.7-1.1,1.4-1c0.7,0.1,1.1,0.7,1,1.4C832.2,304.6,831.6,305.1,831,305L831,305z M838.2,306
								c-0.7-0.1-1.1-0.7-1-1.4c0.1-0.7,0.7-1.1,1.4-1c0.7,0.1,1.1,0.7,1,1.4C839.4,305.6,838.8,306.1,838.2,306L838.2,306z"/>
						</g>
					</g>
				</g>
			</g>
			<g>
				<g>
					<g>
						<g>
							<path class="st2" d="M812.4,306.2c-0.7-0.1-1.1-0.7-1-1.4c0.1-0.7,0.7-1.1,1.4-1c0.7,0.1,1.1,0.7,1,1.4
								C813.7,305.8,813.1,306.3,812.4,306.2L812.4,306.2z M819.6,307.2c-0.7-0.1-1.1-0.7-1-1.4c0.1-0.7,0.7-1.1,1.4-1
								c0.7,0.1,1.1,0.7,1,1.4C820.9,306.8,820.3,307.3,819.6,307.2L819.6,307.2z M826.8,308.3c-0.7-0.1-1.1-0.7-1-1.4
								c0.1-0.7,0.7-1.1,1.4-1c0.7,0.1,1.1,0.7,1,1.4C828.1,307.9,827.5,308.4,826.8,308.3L826.8,308.3z M834,309.3
								c-0.7-0.1-1.1-0.7-1-1.4c0.1-0.7,0.7-1.1,1.4-1c0.7,0.1,1.1,0.7,1,1.4C835.3,309,834.7,309.4,834,309.3L834,309.3z"/>
						</g>
					</g>
				</g>
			</g>
			<g>
				<g>
					<g>
						<g>
							<path class="st2" d="M808.3,309.5c-0.7-0.1-1.1-0.7-1-1.4c0.1-0.7,0.7-1.1,1.4-1c0.7,0.1,1.1,0.7,1,1.4
								C809.5,309.1,808.9,309.6,808.3,309.5L808.3,309.5z M815.5,310.5c-0.7-0.1-1.1-0.7-1-1.4c0.1-0.7,0.7-1.1,1.4-1
								c0.7,0.1,1.1,0.7,1,1.4C816.7,310.2,816.1,310.6,815.5,310.5L815.5,310.5z M822.6,311.6c-0.7-0.1-1.1-0.7-1-1.4
								c0.1-0.7,0.7-1.1,1.4-1c0.7,0.1,1.1,0.7,1,1.4C823.9,311.2,823.3,311.7,822.6,311.6L822.6,311.6z M829.8,312.6
								c-0.7-0.1-1.1-0.7-1-1.4c0.1-0.7,0.7-1.1,1.4-1c0.7,0.1,1.1,0.7,1,1.4C831.1,312.3,830.5,312.7,829.8,312.6L829.8,312.6z
								 M837,313.7c-0.7-0.1-1.1-0.7-1-1.4c0.1-0.7,0.7-1.1,1.4-1c0.7,0.1,1.1,0.7,1,1.4C838.3,313.3,837.7,313.8,837,313.7
								L837,313.7z"/>
						</g>
					</g>
				</g>
			</g>
			<g>
				<g>
					<g>
						<g>
							<path class="st2" d="M807.1,317.1c-0.7-0.1-1.1-0.7-1-1.4c0.1-0.7,0.7-1.1,1.4-1c0.7,0.1,1.1,0.7,1,1.4
								C808.4,316.8,807.8,317.2,807.1,317.1L807.1,317.1z M814.3,318.2c-0.7-0.1-1.1-0.7-1-1.4c0.1-0.7,0.7-1.1,1.4-1
								c0.7,0.1,1.1,0.7,1,1.4C815.6,317.8,815,318.3,814.3,318.2L814.3,318.2z M821.5,319.2c-0.7-0.1-1.1-0.7-1-1.4
								c0.1-0.7,0.7-1.1,1.4-1c0.7,0.1,1.1,0.7,1,1.4C822.8,318.9,822.2,319.3,821.5,319.2L821.5,319.2z M828.7,320.3
								c-0.7-0.1-1.1-0.7-1-1.4c0.1-0.7,0.7-1.1,1.4-1c0.7,0.1,1.1,0.7,1,1.4C830,319.9,829.4,320.4,828.7,320.3L828.7,320.3z
								 M835.9,321.4c-0.7-0.1-1.1-0.7-1-1.4c0.1-0.7,0.7-1.1,1.4-1c0.7,0.1,1.1,0.7,1,1.4C837.2,321,836.6,321.5,835.9,321.4
								L835.9,321.4z"/>
						</g>
					</g>
				</g>
			</g>
			<g>
				<g>
					<g>
						<g>
							<path class="st2" d="M811.3,313.8c-0.7-0.1-1.1-0.7-1-1.4c0.1-0.7,0.7-1.1,1.4-1c0.7,0.1,1.1,0.7,1,1.4
								C812.6,313.5,812,313.9,811.3,313.8L811.3,313.8z M818.5,314.9c-0.7-0.1-1.1-0.7-1-1.4c0.1-0.7,0.7-1.1,1.4-1
								c0.7,0.1,1.1,0.7,1,1.4C819.8,314.5,819.1,315,818.5,314.9L818.5,314.9z M825.7,315.9c-0.7-0.1-1.1-0.7-1-1.4
								c0.1-0.7,0.7-1.1,1.4-1c0.7,0.1,1.1,0.7,1,1.4C827,315.6,826.3,316,825.7,315.9L825.7,315.9z M832.9,317
								c-0.7-0.1-1.1-0.7-1-1.4c0.1-0.7,0.7-1.1,1.4-1c0.7,0.1,1.1,0.7,1,1.4C834.1,316.6,833.5,317.1,832.9,317L832.9,317z"/>
						</g>
					</g>
				</g>
			</g>
		</g>
		<g>
			<g>
				<g>
					<g>
						<path class="st1" d="M791.3,441.9l24,3.5c1.1,0.2,2-0.6,2.2-1.6c0.2-1.1-0.6-2-1.6-2.2l-24-3.5c-1.1-0.2-2,0.6-2.2,1.6
							C789.5,440.8,790.2,441.7,791.3,441.9L791.3,441.9z"/>
					</g>
				</g>
			</g>
		</g>
	</g>
	<g>
		<g>
			<path class="st4" d="M895.9,371.6c0,0-40.1-18.5-47.5,13.4c-7.4,32,36.5,25.3,36.5,25.3L895.9,371.6z"/>
		</g>
	</g>
	<g>
		<polygon class="st0" points="904.6,372.1 895.3,369.4 883.3,412.5 891.5,414.7 		"/>
	</g>
	<g>
		<g>
			<path class="st0" d="M790.2,852.2H413.5V659.7c0-10.7,8.7-19.4,19.4-19.4h338c10.7,0,19.4,8.7,19.4,19.4V852.2z"/>
		</g>
	</g>
	<g>
		<g>
			<rect x="413.5" y="852.2" class="st1" width="376.8" height="16.4"/>
		</g>
	</g>
	<g>
		<g>
			<path class="st1" d="M748.2,993.9c-5.8,0-12.1-1.2-19.3-3.6c-10-3.4-21-1.8-31.6-0.2c-6.1,0.9-12.3,1.8-18.4,1.8c0,0,0,0,0,0
				c-12.8,0-27.8-4.7-31.7-17.9c-3.6-12.3,5-24.8,15-29.3c6-2.7,14-3.5,21-4.1c2-0.2,3.9-0.4,5.6-0.6l1.4-0.2
				c12.7-1.5,24.6-2.9,31-14.3c5.8-10.4,6.8-23.6,6.7-32.9c-0.1-7-0.2-16.6-1.5-26l4.1-0.6c1.3,9.7,1.5,19.4,1.6,26.5
				c0.1,9.8-1,23.8-7.2,35c-7.4,13.3-21,14.9-34.1,16.4l-1.4,0.2c-1.8,0.2-3.7,0.4-5.7,0.6c-6.7,0.6-14.3,1.3-19.7,3.8
				c-8.5,3.9-15.6,14.6-12.7,24.4c3.2,11,16.4,14.9,27.7,14.9c0,0,0,0,0,0c5.8,0,11.6-0.9,17.8-1.8c11.1-1.6,22.6-3.3,33.6,0.4
				c14.8,5,25.8,4.5,36.5-1.9c11.4-6.7,19.8-17.4,27.9-27.7c1.2-1.6,2.4-3.1,3.6-4.6c4-5.2,8.1-10.6,12.9-15.3
				c3.1-3,6.5-5.8,9.7-8.4c3.5-2.8,7.1-5.7,10.2-9l2.9,2.9c-3.3,3.4-7,6.4-10.6,9.3c-3.2,2.6-6.5,5.3-9.4,8.2
				c-4.6,4.5-8.7,9.8-12.6,14.9c-1.2,1.5-2.4,3.1-3.5,4.6c-8.4,10.7-17.1,21.7-29.2,28.8C762.2,992,755.6,993.9,748.2,993.9
				L748.2,993.9z"/>
		</g>
	</g>
	<g>
		<g>
			<path class="st0" d="M892.8,907.7c-18.4,22.6-46.3,30.3-62.4,17.3c-16-13.1-14.1-42,4.3-64.6c18.4-22.6,46.3-30.3,62.4-17.3
				C913.1,856.2,911.2,885.1,892.8,907.7z"/>
		</g>
	</g>
	<g>
		<g>
			<path class="st4" d="M909.4,858.5c0,0-19,47.2-50.4,26.2c-31.4-21,10.7-50,10.7-50L909.4,858.5z"/>
		</g>
	</g>
	<g>
		<polygon class="st0" points="869,827.6 862.2,838.3 908.2,867.5 915.4,853.7 		"/>
	</g>
	<g>
		<g>
			<g>
				<polygon class="st2" points="473.3,640.4 474,557.9 574,532.2 631,532.5 740,557.9 740.4,640.4 				"/>
			</g>
		</g>
		<g>
			<g>
				<g>
					<path class="st2" d="M308.9,731.8c0-90.1,102.2-112.9,166.3-112.7l-0.6-34.5c-117.4-1.3-212.9,57.8-213.2,148.3
						c-0.2,63.4,18.2,108.7,34,135.6l49.6-39.9C328.7,803.6,308.9,765.8,308.9,731.8z"/>
				</g>
			</g>
		</g>
		<g>
			<g>
				<g>
					<path class="st2" d="M947.2,732.9c-0.4-90.5-95.8-149.6-208.8-148.3l-0.6,34.5c59.6-0.2,161.8,22.6,161.8,112.7
						c0,34.8-20.8,73.5-37.1,98.6l54.2,32C931.5,834.9,947.4,791.7,947.2,732.9z"/>
				</g>
			</g>
		</g>
		<g>
			<g>
				<g>
					<path class="st2" d="M289.8,469.1c0-28.3,14.5-43,29.3-50.7l-10.3-47.5c-28.3,13-61,41.4-61,103.8
						c0,101.4,112.5,117.8,227,116.6l0.6-33.4C414.4,558.1,289.8,559.2,289.8,469.1z"/>
				</g>
			</g>
		</g>
		<g>
			<g>
				<g>
					<path class="st2" d="M901.8,369.5l-13,46.2c16.5,6.6,35.3,21.3,35.3,53.4c0,90.1-124.6,89-185.7,88.8l0.6,33.4
						c114.5,1.3,227-15.2,227-116.6C966.1,409.9,930.9,381.7,901.8,369.5z"/>
				</g>
			</g>
		</g>
	</g>
	<g>
		<g>
			<g>
				<g>
					<path class="st3" d="M986.1,668.4v4.6H1096v-99l-109.9,0v4.6c-21.5,0.6-36.4,21.5-36.4,44.9
						C949.7,646.9,964.6,667.8,986.1,668.4z M963,623.6c0-13.2,7.1-30.9,23.1-31.6v63.1C970.2,654.5,963,636.7,963,623.6z"/>
				</g>
			</g>
			<g>
				<g>
					<path class="st0" d="M986.1,574.1c0,15.9,24.6,28.8,55,28.8c30.4,0,55-12.9,55-28.8c0-15.9-24.6-28.8-55-28.8
						C1010.7,545.3,986.1,558.2,986.1,574.1z"/>
				</g>
			</g>
			<g>
				<g>
					<path class="st5" d="M1041.1,594c28.1,0,46.1-11.8,46.1-19.9c0-8.1-18-19.9-46.1-19.9c-28.1,0-46.1,11.8-46.1,19.9
						C995,582.2,1012.9,594,1041.1,594L1041.1,594z"/>
				</g>
			</g>
			<g>
				<g>
					<path class="st2" d="M1082.7,581.8c-7,6.3-21.8,12.2-41.6,12.2c-19.8,0-34.6-5.9-41.6-12.2c7-6.3,21.8-12.2,41.6-12.2
						C1060.9,569.7,1075.7,575.5,1082.7,581.8z"/>
				</g>
			</g>
			<g>
				<g>
					<path class="st3" d="M986.1,673.1c0,15.9,24.6,28.8,55,28.8c30.4,0,55-12.9,55-28.8c0-15.9-24.6-28.8-55-28.8
						C1010.7,644.3,986.1,657.2,986.1,673.1z"/>
				</g>
			</g>
		</g>
		<g>
			<path class="st0" d="M1047.7,408.7c17.2,18.7-6.2,27-6.2,46.1c0,19,12.6,18.6,16.7,36.4c5.4,22.9-21.3,27.3-19.8,47.6
				c-11.4-17.6,22-34.1,6.3-49.8c-9.6-9.6-19.9-16-19.9-32.1C1024.8,435.7,1053.4,426.2,1047.7,408.7z"/>
		</g>
	</g>
	<g>
		<g>
			<g>
				<g>
					<g>
						<g>
							<rect x="101.6" y="672.8" class="st2" width="144" height="13.1"/>
						</g>
					</g>
				</g>
			</g>
			<g>
				<g>
					<g>
						<g>
							<g>
								<polygon class="st3" points="245.6,672.8 101.6,672.8 120.8,555.9 226.5,555.9 								"/>
							</g>
						</g>
					</g>
				</g>
			</g>
			<g>
				<g>
					<g>
						<g>
							<g>
								<path class="st0" d="M173.6,564.9c-27.3,0-49.5,22.2-49.5,49.5c0,27.3,22.2,49.5,49.5,49.5c27.3,0,49.5-22.2,49.5-49.5
									C223.1,587,200.9,564.9,173.6,564.9z M173.6,643.9c-16.3,0-29.5-13.2-29.5-29.5c0-16.3,13.2-29.5,29.5-29.5
									c16.3,0,29.5,13.2,29.5,29.5C203.2,630.7,189.9,643.9,173.6,643.9z"/>
							</g>
						</g>
					</g>
				</g>
			</g>
			<g>
				<g>
					<g>
						<g>
							<g>
								<path class="st2" d="M179.3,660.3c-3.4,0-6.4-2.6-6.9-6c-0.3-1.8,0.2-3.7,1.3-5.2c1.1-1.5,2.7-2.5,4.6-2.7
									c0.3,0,0.7-0.1,1-0.1c3.4,0,6.4,2.6,6.9,6c0.5,3.8-2.1,7.3-5.9,7.9C179.9,660.2,179.6,660.3,179.3,660.3L179.3,660.3z
									 M160.8,658.5L160.8,658.5c-0.8,0-1.5-0.1-2.3-0.4c-1.8-0.6-3.2-1.9-4-3.5c-0.8-1.7-0.9-3.6-0.3-5.3c1-2.8,3.6-4.7,6.6-4.7
									c0.8,0,1.5,0.1,2.3,0.4l0.1,0c1.7,0.6,3.1,1.8,3.9,3.5c0.8,1.7,0.9,3.5,0.3,5.3C166.4,656.7,163.8,658.5,160.8,658.5
									L160.8,658.5z M145.2,648.5L145.2,648.5c-1.9,0-3.7-0.8-5-2.1c-1.3-1.3-2-3.1-1.9-5c0-1.9,0.8-3.6,2.1-4.9
									c1.3-1.3,3-1.9,4.8-1.9c1.9,0,3.7,0.8,5,2.1c1.3,1.3,2,3.1,1.9,5c0,1.9-0.8,3.6-2.1,4.9C148.7,647.9,147,648.5,145.2,648.5
									L145.2,648.5z M135.9,632.5c-3.1,0-5.8-2-6.7-5c-0.5-1.8-0.3-3.7,0.6-5.3c0.9-1.6,2.4-2.8,4.1-3.3c0.6-0.2,1.3-0.3,2-0.3
									c3,0,5.8,2,6.7,5c1.1,3.7-1,7.5-4.7,8.6C137.2,632.4,136.5,632.5,135.9,632.5L135.9,632.5z M134.9,614c-0.4,0-0.9,0-1.3-0.1
									c-3.8-0.7-6.3-4.3-5.5-8.1c0.6-3.3,3.5-5.7,6.8-5.7c0.4,0,0.9,0,1.3,0.1c3.8,0.7,6.3,4.3,5.5,8.1
									C141.1,611.6,138.3,614,134.9,614L134.9,614z M206.6,599.8c-2.4,0-4.5-1.2-5.8-3.2c-2.1-3.2-1.2-7.5,2-9.6
									c1.1-0.7,2.4-1.1,3.8-1.1c2.4,0,4.5,1.2,5.8,3.2c2.1,3.2,1.2,7.5-2,9.6C209.3,599.4,208,599.8,206.6,599.8L206.6,599.8z
									 M142.6,597.1c-1.6,0-3-0.5-4.3-1.5c-1.5-1.1-2.4-2.8-2.6-4.6c-0.2-1.8,0.3-3.7,1.4-5.1c1.3-1.7,3.3-2.7,5.5-2.7
									c1.6,0,3,0.5,4.3,1.5c1.5,1.1,2.4,2.8,2.6,4.6c0.2,1.8-0.3,3.7-1.4,5.1C146.7,596.1,144.7,597.1,142.6,597.1L142.6,597.1z
									 M193.1,587.1c-1.2,0-2.4-0.3-3.4-0.9c-1.6-0.9-2.8-2.4-3.3-4.2c-0.5-1.8-0.3-3.7,0.7-5.3c1.2-2.2,3.5-3.5,6-3.5
									c1.2,0,2.4,0.3,3.4,0.9c3.3,1.9,4.5,6.1,2.6,9.5C197.9,585.7,195.6,587.1,193.1,587.1L193.1,587.1z M157.1,585.6
									c-2.7,0-5.2-1.6-6.3-4c-0.8-1.7-0.9-3.6-0.2-5.3c0.6-1.7,1.9-3.1,3.6-3.9c0.9-0.4,1.9-0.6,2.9-0.6c2.7,0,5.2,1.6,6.3,4
									c1.6,3.5,0.1,7.6-3.4,9.2C159.1,585.3,158.1,585.6,157.1,585.6L157.1,585.6z M175.3,582c-0.1,0-0.2,0-0.3,0
									c-1.9-0.1-3.6-0.9-4.8-2.2c-1.3-1.4-1.9-3.1-1.8-5c0.2-3.8,3.4-6.8,7.2-6.7c3.8,0.2,6.8,3.4,6.6,7.2
									C182.1,579,179,582,175.3,582L175.3,582z"/>
							</g>
						</g>
					</g>
				</g>
			</g>
			<g>
				<g>
					<g>
						<g>
							<polygon class="st2" points="206.7,653.8 199.2,658.9 189,641.2 194.4,637.6 							"/>
						</g>
					</g>
				</g>
			</g>
			<g>
				<g>
					<g>
						<g>
							<g>
								<rect x="137.3" y="544.9" class="st3" width="12.3" height="20"/>
							</g>
						</g>
					</g>
				</g>
				<g>
					<g>
						<g>
							<g>
								<rect x="197.7" y="544.9" class="st3" width="12.3" height="20"/>
							</g>
						</g>
					</g>
				</g>
			</g>
		</g>
		<g>
			<path class="st1" d="M378.4,474c3.3,12.6,2,26.5-8.1,35.6c-8,7.2-19.1,9.6-29.4,10.8c-18.3,2.2-38,0.3-54.4,10.2
				c-20.6,12.3-23.1,37.7-19.7,59.2c2.1,13.2,7,28.3,2.6,41.5c-3.8,11.2-16.7,15.9-27.4,18.6l0.7,4.1c9.2-2.3,18.2-5.7,25-12.5
				c8.6-8.6,8-21,6.6-32.1c-1.7-14-5.7-27.6-4.8-41.8c1-14.9,9.8-28.8,23.2-35.5c19.2-9.6,42.7-4.5,63-10.1
				c9.4-2.6,18.3-8.1,23.7-16.4c6-9.1,5.8-21.7,3.2-31.9C381.4,473.6,380,473.9,378.4,474z"/>
		</g>
	</g>
	<g>
		<g>
			<g>
				<polygon class="st4" points="631.4,478 631,531.1 602.2,595.2 574,530.7 574.4,477.6 				"/>
			</g>
		</g>
		<g>
			<g>
				<path class="st1" d="M472.6,396.6c0,0-0.1,66.8-14.5,108.4c0,0,61.1,4.3,108.2-11c46.4-15,46.4-12.7,46.4-12.7L472.6,396.6z"/>
			</g>
			<g>
				<path class="st4" d="M464.9,367.3c-0.1,79.6,54.8,144.1,126.4,144.2c71.6,0.1,132.9-64.4,133-143.9
					c0.1-79.6-57.9-144.2-129.5-144.2C470.5,223.3,465,287.8,464.9,367.3z"/>
			</g>
			<g>
				<path class="st1" d="M669.5,361.3l-1.1-37.8c0,0-111.3,20.8-209.5-2.2c6.1-66.9,64-119.9,134.5-119.6
					c167.6,0.2,170.7,154.9,133.4,283.1c-47.1,19.9-86.4,22.5-86.4,22.5c23.6-44.1,29.1-121.8,29.1-121.8s26.5,10.1,24.7-16.6
					C692.9,350.5,669.5,361.3,669.5,361.3z"/>
			</g>
		</g>
		<g>
			<path class="st6" d="M592.2,449.4c-0.7,12.3-13.6,17.4-28.5,16.5c-15-0.9-26.4-7.5-25.7-19.7c0.7-12.3,13.5-21.5,28.4-20.6
				C581.4,426.5,593,437.2,592.2,449.4z"/>
		</g>
		<g>
			<path class="st1" d="M509.7,408.9c-13.5,0-22.7-7.2-24.5-19.2c-0.9-6,0.6-12,4.2-16.9c3.6-4.9,8.9-8.1,14.9-8.9
				c0.9-0.1,1.8-0.2,2.8-0.2c4,0,7.8,1.3,11,3.6c4,2.9,6.6,7.3,7.3,12.2c0.6,4-0.4,8-2.8,11.3c-2.4,3.3-6,5.4-10,6
				c-0.6,0.1-1.3,0.1-1.9,0.1c-2.7,0-5.2-0.9-7.4-2.5c-2.7-2-4.4-4.9-4.9-8.2c-0.4-2.7,0.3-5.5,1.9-7.7c1.7-2.2,4.1-3.7,6.8-4.1
				c0.4-0.1,0.9-0.1,1.3-0.1c1.9,0,3.6,0.6,5.1,1.7c1.9,1.4,3.1,3.4,3.4,5.7c0.6,4-2.2,7.7-6.1,8.3c-0.1,0-0.2,0-0.3,0
				c-0.9,0-1.7-0.7-1.8-1.6c-0.1-1,0.5-1.9,1.5-2.1c2-0.3,3.4-2.2,3.1-4.1c-0.2-1.3-0.9-2.5-2-3.3c-0.9-0.6-1.9-1-3-1
				c-0.2,0-0.5,0-0.7,0.1c-1.8,0.3-3.3,1.2-4.4,2.6c-1.1,1.4-1.5,3.2-1.2,5c0.3,2.3,1.6,4.4,3.5,5.8c1.5,1.1,3.4,1.7,5.3,1.7
				c0.4,0,0.9,0,1.3-0.1c3-0.5,5.7-2.1,7.6-4.5c1.8-2.5,2.6-5.5,2.1-8.6c-0.6-3.9-2.7-7.4-5.9-9.8c-2.6-1.9-5.6-2.9-8.8-2.9
				c-0.7,0-1.5,0.1-2.2,0.2c-5,0.7-9.5,3.4-12.5,7.5c-3,4.1-4.3,9.1-3.5,14.1c2.1,14,14.2,16.1,21.2,16.1c2.4,0,4.4-0.2,5.7-0.4
				c7.4-1.1,13.1-4.3,16.6-9.1c3.6-5,4.9-12,3.7-20.1c-1-6.9-5-12.5-11.2-15.6c-3.5-1.8-7.5-2.7-11.8-2.7c-6.1,0-12.7,1.8-19.1,5.3
				c-0.3,0.1-0.6,0.2-0.9,0.2c-0.7,0-1.3-0.4-1.6-1c-0.2-0.4-0.3-0.9-0.1-1.4c0.1-0.5,0.5-0.9,0.9-1.1c6.9-3.7,14.2-5.7,20.9-5.7
				c4.9,0,9.4,1,13.4,3c7.2,3.6,12,10.3,13.2,18.3c1.4,9.1-0.2,17-4.3,22.8c-4.1,5.7-10.7,9.4-19.1,10.6
				C514,408.7,511.8,408.9,509.7,408.9L509.7,408.9z"/>
		</g>
		<g>
			<path class="st1" d="M611.9,408.4c-8.9,0-17-3.4-22.8-9.7c-6.5-6.9-9-16.1-6.7-24.5c2.4-8.9,6.9-15.5,13.1-19.2
				c3.8-2.2,8.1-3.4,12.8-3.4c2.9,0,5.9,0.4,8.9,1.2c16.6,4.5,24.7,15.8,21,29.5c-2.7,9.9-11.7,16.8-21.9,16.8c-2,0-4-0.3-5.9-0.8
				c-9.9-2.6-15.7-12.8-13.1-22.7c1.8-6.6,7.8-11.3,14.7-11.3c1.3,0,2.6,0.2,3.9,0.5c6.7,1.8,10.6,8.7,8.8,15.3
				c-1.2,4.5-5.3,7.7-10,7.7c-0.9,0-1.8-0.1-2.7-0.4c-4.6-1.2-7.4-6-6.1-10.6c0.9-3.2,3.8-5.4,7.1-5.4c0.6,0,1.3,0.1,1.9,0.2
				c1,0.3,1.6,1.3,1.3,2.2c-0.2,0.8-0.9,1.4-1.8,1.4c-0.2,0-0.3,0-0.5-0.1c-0.3-0.1-0.6-0.1-0.9-0.1c-1.6,0-3.1,1.1-3.5,2.7
				c-0.7,2.7,0.9,5.4,3.5,6.1c0.6,0.2,1.2,0.2,1.7,0.2c3,0,5.7-2,6.5-5c0.6-2.3,0.3-4.7-0.9-6.7c-1.2-2.1-3.1-3.5-5.4-4.1
				c-1-0.3-2-0.4-3-0.4c-5.2,0-9.8,3.5-11.1,8.5c-2.1,7.9,2.6,16.1,10.5,18.2c1.6,0.4,3.3,0.7,4.9,0.7c8.6,0,16.2-5.8,18.4-14.1
				c4.7-17.4-12.9-23.6-18.4-25c-2.7-0.7-5.4-1.1-8-1.1c-4.1,0-7.8,1-10.9,2.8c-5.3,3.2-9.3,9-11.4,17c-1.9,7.2,0.3,15.1,5.9,21.1
				c5.2,5.5,12.3,8.5,20.2,8.5c2,0,4.1-0.2,6.1-0.6c0.1,0,0.2,0,0.4,0c0.9,0,1.6,0.6,1.8,1.5c0.2,1-0.4,2-1.4,2.2
				C616.5,408.1,614.2,408.4,611.9,408.4L611.9,408.4z"/>
		</g>
	</g>
	<g>
		<g>
			<polygon class="st0" points="574,530.7 561.9,535 602,622.2 643.7,535.2 631.1,531.1 602.2,595.2 			"/>
		</g>
	</g>
	<g>
		<g>
			<polygon class="st0" points="631.1,531.1 646.5,536.1 652.1,593.2 630.8,582.7 606.1,586.6 			"/>
		</g>
	</g>
	<g>
		<g>
			<polygon class="st0" points="574,530.7 559.2,535.9 552.2,592.6 573.7,582.3 598.4,586.5 			"/>
		</g>
	</g>
	<g>
		<g>
			<path class="st0" d="M913.9,847c-2.6-0.3-4.4-2.7-4-5.3c0.3-2.6,2.7-4.4,5.3-4c2.6,0.3,4.4,2.7,4,5.3
				C918.9,845.6,916.5,847.4,913.9,847z"/>
		</g>
	</g>
	<g>
		<g>
			<path class="st0" d="M921.5,830.1c-2.6-0.3-4.4-2.7-4-5.3c0.3-2.6,2.7-4.4,5.3-4c2.6,0.3,4.4,2.7,4,5.3
				C926.4,828.6,924,830.5,921.5,830.1z"/>
		</g>
	</g>
	<g>
		<g>
			<path class="st0" d="M909.6,388.8c-2.6-0.3-4.4-2.7-4-5.3c0.3-2.6,2.7-4.4,5.3-4c2.6,0.3,4.4,2.7,4,5.3
				C914.5,387.4,912.2,389.2,909.6,388.8z"/>
		</g>
	</g>
	<g>
		<g>
			<path class="st0" d="M923.1,398.2c-2.6-0.3-4.4-2.7-4-5.3c0.3-2.6,2.7-4.4,5.3-4c2.6,0.3,4.4,2.7,4,5.3
				C928,396.8,925.6,398.6,923.1,398.2z"/>
		</g>
	</g>
	<g>
		<g>
			<path class="st0" d="M299.7,391.3c2.6-0.3,4.4-2.7,4-5.3c-0.3-2.6-2.7-4.4-5.3-4c-2.6,0.3-4.4,2.7-4,5.3
				C294.7,389.8,297.1,391.6,299.7,391.3z"/>
		</g>
	</g>
	<g>
		<g>
			<path class="st0" d="M286.2,400.7c2.6-0.3,4.4-2.7,4-5.3c-0.3-2.6-2.7-4.4-5.3-4c-2.6,0.3-4.4,2.7-4,5.3
				C281.2,399.2,283.6,401,286.2,400.7z"/>
		</g>
	</g>
	<g>
		<g>
			<path class="st0" d="M298.1,854.3c2.6-0.5,4.2-2.9,3.8-5.5c-0.5-2.5-2.9-4.2-5.5-3.7c-2.6,0.5-4.2,2.9-3.8,5.5
				C293.1,853.1,295.6,854.8,298.1,854.3z"/>
		</g>
	</g>
	<g>
		<g>
			<path class="st0" d="M289.7,837.8c2.6-0.5,4.2-2.9,3.8-5.5c-0.5-2.5-2.9-4.2-5.5-3.7c-2.6,0.5-4.2,2.9-3.8,5.5
				C284.7,836.6,287.2,838.3,289.7,837.8z"/>
		</g>
	</g>
</g>
</svg>
