<?xml version="1.0" encoding="utf-8"?>
<!-- Generator: Adobe Illustrator 22.1.0, SVG Export Plug-In . SVG Version: 6.00 Build 0)  -->
<svg version="1.1" xmlns="http://www.w3.org/2000/svg" xmlns:xlink="http://www.w3.org/1999/xlink" x="0px" y="0px"
	 viewBox="0 0 1200 1200" style="enable-background:new 0 0 1200 1200;" xml:space="preserve">
<style type="text/css">
	.st0{fill:#C0644B;}
	.st1{fill:#AB5842;}
	.st2{fill:#A1523E;}
	.st3{fill:#793E2F;}
	.st4{fill:#F2F2F2;}
	.st5{fill:#FDDCBE;}
	.st6{fill:#242424;}
	.st7{fill:#1C1C1C;}
	.st8{fill:#FDDBBB;}
	.st9{fill:#F5F5F5;}
	.st10{fill:#484848;}
	.st11{fill:#8C6239;}
	.st12{fill:#333333;}
	.st13{fill:#CCCCCC;}
	.st14{fill:#EB7D86;}
</style>
<g id="Layer_2">
</g>
<g id="Layer_1">
	<g>
		<g>
			<g>
				<g>
					<polygon class="st0" points="657,49.4 1123.4,249.4 1045.9,270.4 583.8,70.4 					"/>
				</g>
				<g>
					<polygon class="st1" points="1123.4,249.4 1123.4,851.1 1045.9,872.1 1045.9,270.4 					"/>
				</g>
				<polygon class="st2" points="583.8,70.4 583.8,672.1 1045.9,872.1 1045.9,270.4 				"/>
			</g>
			<path class="st3" d="M1045.9,341l77.6-21.6v-6.3l-77.6,21.2l-152.9-66.8l-0.2-63.4l0,0l76.1-21l-8-3.4l-76.1,21l0.1,63.4
				l-146.7-63.5l-0.1-63.3l74.7-21l-8-3.4l-74.6,21l0.1,63.3l-146.7-63.5v7.1l69.8,30.2v59.7l-69.8-30.2v7.1l69.8,30.2l7.9,3.4
				l69.1,29.9l0.1,59.8L661.4,301l-7.9-3.4l-69.8-30.2v7.1l69.8,30.2v59.7l-69.8-30.2v7.1l69.8,30.2l7.9,3.4l69.3,30l0.1,59.8
				l-69.4-30l-7.9-3.4l-69.8-30.2v7.1l69.8,30.2v59.7L583.8,468v7.1l69.8,30.2l7.9,3.4l69.5,30.1l0.1,59.8l-69.5-30.1l-7.9-3.4
				l-69.8-30.2v7.1l69.8,30.2v59.7l-69.8-30.2v7.1l69.8,30.2l7.9,3.4l69.6,30.1l0.1,63.3l7.9,3.4L739,676l69.9,30.3l7.9,3.4
				l69.5,30.1l0.2,63.4l7.9,3.4l-0.2-63.4l70.1,30.3l7.9,3.4l73.7,31.5l77.6-21v-6.3l-77.6,20.9l-73.7-32.3v-59.7l73.7,31.5l77.6-21
				v-6.3l-77.6,21.1l-73.7-32.4l-7.9-3.4L894,669.1l-0.2-59.8l70.4,30.5l7.9,3.4l73.7,31.5l77.6-21v-6.3l-77.6,21.1l-73.7-32.4
				v-59.7l73.7,31.5l77.6-21v-6.3l-77.6,21.1l-73.7-32.4l-7.9-3.4l-70.6-30.6l-0.2-59.8l70.8,30.6l7.9,3.4l73.7,31.5l77.6-21v-6.3
				l-77.6,20.9l-73.7-32.3v-59.7l73.7,31.5l77.6-21v-6.3l-77.6,21l-73.7-32.3l-7.9-3.4l-71-30.7l-0.2-59.8l71.1,30.8l7.9,3.4
				l73.7,32.1l77.6-21.7V380l-77.6,21.2l-73.7-32.5v-59.7L1045.9,341z M808.9,364.8l-70.4-30.5l-0.1-59.8l70.5,30.5l7.9,3.4
				l68.4,29.6l0.2,59.8l-68.6-29.7L808.9,364.8z M816.8,442.2l68.8,29.8l0.2,59.8L816.8,502l-7.9-3.4l-70.2-30.4l-0.1-59.8
				l70.3,30.4L816.8,442.2z M730.5,264.1l-69.1-29.9v-59.7l69,29.9l7.9,3.4l70.5,30.5V298l-70.5-30.5L730.5,264.1z M730.7,397.9
				l-69.3-30v-59.7l69.2,30l7.9,3.4l70.4,30.5v59.7l-70.3-30.4L730.7,397.9z M730.9,531.7l-69.5-30.1v-59.7l69.4,30l7.9,3.4
				l70.2,30.4v59.7l-70.1-30.3L730.9,531.7z M808.9,699.1L739,668.9l-7.9-3.4l-69.6-30.1v-59.7l69.6,30.1l7.9,3.4l70,30.3V699.1z
				 M808.9,632.3l-70-30.3l-0.1-59.8l70.1,30.3l7.9,3.4l69.1,29.9l0.2,59.8l-69.3-30L808.9,632.3z M894,676.2l70.2,30.4v59.7
				L894.1,736l-7.9-3.4l-69.5-30.1v-59.7l69.3,30L894,676.2z M893.6,542.4l70.6,30.6v59.7l-70.4-30.5l-7.9-3.4l-69.1-29.9v-59.7
				l69,29.8L893.6,542.4z M893.3,408.5l70.9,30.7v59.7l-70.8-30.6l-7.9-3.4l-68.8-29.8v-59.7l68.6,29.7L893.3,408.5z M964.2,365.2
				l-71.1-30.8l-7.9-3.4l-68.4-29.6v-59.7l68.3,29.5l7.9,3.4l71.3,30.9V365.2z"/>
		</g>
		<polygon class="st4" points="583.8,672.1 0,831.7 0,1076.8 1045.9,872.1 		"/>
	</g>
	<g>
		<ellipse class="st4" cx="276.8" cy="911.7" rx="201.2" ry="25.1"/>
		<g>
			<path class="st5" d="M405.5,684.2c0,0-1.2-179.5-143-121.3c0,0-24.7,49.5-16.7,138.8C358,713.1,405.5,684.2,405.5,684.2z"/>
			<path class="st6" d="M347,486.9c35.4,32.8,55.8,91-82.8,114.3l6,37.6c0,0-18.7-7.3-17.3,9.2c1.5,16.8,17.9,2.9,17.9,2.9
				s-6.4,38.3-25.1,50.8c0.8,1.2-74.2-118-20.3-129.3c0,0-9.5-33.6,23.8-52.9C293.9,493.8,348.4,538.8,347,486.9z"/>
			<g>
				<g>
					<g>
						<g>
							<g>
								<g>
									<path class="st7" d="M412.4,810.5l3,54l-8.2,37.7c0,0,16.4-7.9,23.2,6.2c9.6,19.8-33.7,4-33.7,4l8.1-50l-8.6-36
										c0,0-45.7,13.5-107.7,11.8l6.1,28l-11.1,45.5c0,0,19-13.9,24.3,2.7c7,22.2-33.4,2.4-33.4,2.4l6.8-51.6l-10-35.4
										C271.1,829.8,322.9,809.8,412.4,810.5z"/>
								</g>
								<g>
									<path class="st6" d="M295.7,695.5l56.8,59.5l41.5-69.9l14.3-1.4l4,126.8c0,0-12.8,5.8-41,11.1c-11.8,2.4-30,4.6-30,4.6
										c-18.6,1.9-43.8,3.4-70.3,3.6l-28.1-128L295.7,695.5z"/>
								</g>
								<path class="st8" d="M423.8,803.8c0,0-9.3,16.1-19.6,6.9c-10.3-9.2,6.5-17.6,6.5-17.6L423.8,803.8z"/>
								<g>
									<g>
										<g>
											<polygon class="st9" points="394.1,685 352.6,755 295.7,695.5 											"/>
										</g>
										<g>
											<polygon class="st10" points="394.1,685 397.6,712.8 382.3,717.6 386.6,738.5 352.6,755 											"/>
										</g>
										<g>
											<polygon class="st10" points="352.6,755 316.6,741.8 316.3,726.3 299.1,722 295.7,695.5 											"/>
										</g>
										<g>
											<polygon class="st7" points="361.3,702.2 355.3,695 341.9,695.9 338,705.7 344,711.5 339.7,741.6 352.6,755 363.6,736.4 
												355.9,710.6 											"/>
										</g>
									</g>
								</g>
								<g>
									<path class="st10" d="M349.6,766.6c0.8,2.4,3.3,3.7,5.7,2.9c2.4-0.8,3.7-3.3,2.9-5.7c-0.8-2.4-3.3-3.7-5.7-2.9
										C350.2,761.6,348.8,764.2,349.6,766.6z"/>
								</g>
								<g>
									<path class="st10" d="M351,787.2c0.8,2.4,3.3,3.7,5.7,2.9c2.4-0.8,3.7-3.3,2.9-5.7c-0.8-2.4-3.3-3.7-5.7-2.9
										C351.5,782.3,350.2,784.8,351,787.2z"/>
								</g>
							</g>
						</g>
						<g>
							<g>
								<polygon class="st9" points="412.4,790.1 409.1,793.2 424.2,804.6 426.5,800.8 								"/>
							</g>
							<g>
								<path class="st6" d="M405.6,686c0,0,86.6,35.3,21.8,117.3l-17.6-12.4c0,0,52-50.5-2.2-84.4L405.6,686z"/>
							</g>
							<g>
								<path class="st10" d="M435.7,787.4c-0.8,0.8-2,0.8-2.8,0c-0.8-0.8-0.8-2,0-2.8c0.8-0.8,2-0.8,2.8,0
									C436.4,785.4,436.5,786.6,435.7,787.4z"/>
							</g>
							<g>
								<path class="st10" d="M431.7,793c-0.8,0.8-2,0.8-2.8,0c-0.8-0.8-0.8-2,0-2.8c0.8-0.8,2-0.8,2.8,0
									C432.5,791,432.5,792.3,431.7,793z"/>
							</g>
							<g>
								<path class="st10" d="M427.9,798.5c-0.8,0.8-2,0.8-2.8,0c-0.8-0.8-0.8-2,0-2.8c0.8-0.8,2-0.8,2.8,0
									C428.6,796.5,428.6,797.8,427.9,798.5z"/>
							</g>
						</g>
					</g>
					<g>
						<path class="st8" d="M180.9,786.6c0,0-18.3,3.5-18-10.3c0.2-13.8,17.5-6.6,17.5-6.6L180.9,786.6z"/>
						<g>
							<polygon class="st9" points="183.5,769.1 179.1,768.6 179.7,787.5 184.4,787.9 							"/>
						</g>
						<g>
							<path class="st6" d="M258.1,718.5c0,0,19.2,76.7-75.3,70.6l-1.5-21.5c0,0,68.3,15.6,61.7-65.7L258.1,718.5z"/>
						</g>
						<g>
							<path class="st10" d="M200.4,785.5c-1.1-0.1-1.9-1.1-1.8-2.2c0.1-1.1,1.1-1.9,2.2-1.8c1.1,0.1,1.9,1.1,1.8,2.2
								C202.4,784.8,201.5,785.6,200.4,785.5z"/>
						</g>
						<g>
							<path class="st10" d="M193.5,786c-1.1-0.1-1.9-1.1-1.8-2.2c0.1-1.1,1.1-1.9,2.2-1.8c1.1,0.1,1.9,1.1,1.8,2.2
								C195.5,785.3,194.6,786.1,193.5,786z"/>
						</g>
						<g>
							<path class="st10" d="M186.8,786.5c-1.1-0.1-1.9-1.1-1.8-2.2c0.1-1.1,1.1-1.9,2.2-1.8c1.1,0.1,1.9,1.1,1.8,2.2
								C188.8,785.8,187.9,786.6,186.8,786.5z"/>
						</g>
					</g>
				</g>
			</g>
			<g>
				<path class="st11" d="M167.1,713.2v159.6c0,3.1,2.5,5.6,5.6,5.6h0.1c3.1,0,5.6-2.5,5.6-5.6V713.2c0-3.1-2.5-5.6-5.6-5.6h-0.1
					C169.6,707.6,167.1,710.1,167.1,713.2z"/>
				<path class="st12" d="M121.3,875.1c0,0,37.8-16,98.6-1.7c0,0,16.3,21.9,0,45c0,0-52.1,12.2-98.6,0
					C121.3,918.4,131.4,895.8,121.3,875.1z"/>
				<path class="st13" d="M127.2,896.7c0-12-2.4-21.8-5.3-21.8c-3,0-5.3,9.7-5.3,21.8c0,12,2.4,21.8,5.3,21.8
					C124.8,918.5,127.2,908.7,127.2,896.7z"/>
			</g>
			<path class="st8" d="M171.1,777.7c0.4,5.4-1,8.1-3,8.3c-2,0.1-5.5-2.3-5.9-7.6c-0.4-5.4,2.7-9,4.7-9.2
				C168.9,769,170.7,772.3,171.1,777.7z"/>
			<path class="st6" d="M308.8,630.8c2,5.7,1.4,11.1-1.4,12.1c-2.8,1-6.7-2.8-8.7-8.6c-2-5.7-1.4-11.1,1.4-12.1
				C302.8,621.2,306.7,625.1,308.8,630.8z"/>
			<path class="st6" d="M376,609.2c2,5.7,1.4,11.1-1.4,12.1c-2.8,1-6.7-2.8-8.7-8.6c-2-5.7-1.4-11.1,1.4-12.1
				C370,599.7,373.9,603.5,376,609.2z"/>
			<g>
				<path class="st14" d="M375.3,637.9c0,0-34.6,5.3-54.4,16c0,0,3.3,28.4,35.3,20C387.9,665.6,375.3,637.9,375.3,637.9z"/>
			</g>
		</g>
	</g>
</g>
</svg>
