<?xml version="1.0" encoding="utf-8"?>
<!-- Generator: Adobe Illustrator 22.1.0, SVG Export Plug-In . SVG Version: 6.00 Build 0)  -->
<svg version="1.1" xmlns="http://www.w3.org/2000/svg" xmlns:xlink="http://www.w3.org/1999/xlink" x="0px" y="0px"
	 viewBox="0 0 1200 1200" style="enable-background:new 0 0 1200 1200;" xml:space="preserve">
<style type="text/css">
	.st0{fill:#95BAA8;}
	.st1{fill:#F1F2F2;}
	.st2{fill:#FDDBBB;}
	.st3{fill:#3B3B3B;}
	.st4{fill:#F5F5F5;}
	.st5{fill:#808080;}
	.st6{fill:#E6E7E8;}
	.st7{fill:#594A42;}
	.st8{fill:#EB7D86;}
	.st9{fill:#D99543;}
	.st10{fill:#EFA734;}
	.st11{fill:#BCBEC0;}
	.st12{fill:#D1D3D4;}
	.st13{fill:#F8C36C;}
	.st14{fill:#333333;}
	.st15{fill:#E15E18;}
	.st16{fill:#F9D2A7;}
</style>
<g id="Layer_2">
	<rect x="1334" y="43" class="st0" width="1200" height="1200"/>
</g>
<g id="Layer_1">
	<g>
		<g>
			<g>
				<g>
					<path class="st1" d="M1050.6,988.6c0,8.7-130.8,15.7-292.2,15.7c-161.4,0-292.2-7-292.2-15.7c0-8.7,130.8-15.7,292.2-15.7
						C919.7,972.9,1050.6,979.9,1050.6,988.6z"/>
				</g>
			</g>
		</g>
	</g>
	<g>
		<g>
			<g>
				<g>
					<path class="st1" d="M183.2,991.1c0,4.6-28.4,8.3-63.4,8.3c-35,0-63.4-3.7-63.4-8.3c0-4.6,28.4-8.3,63.4-8.3
						C154.8,982.8,183.2,986.5,183.2,991.1z"/>
				</g>
			</g>
		</g>
	</g>
	<g>
		<g>
			<g>
				<g>
					<ellipse class="st1" cx="327.2" cy="991.1" rx="107.7" ry="15.4"/>
				</g>
			</g>
		</g>
	</g>
	<g>
		<g>
			<g>
				<g>
					<g>
						<g>
							<g>
								<path class="st2" d="M352,784.5l23.1,106.7l-8.6,75.7c0,0,18.7,35.2,32.3,26.3c15.7-10.2-18.2-30.9-18.2-30.9l20.8-68.7
									l-4.7-106.9L352,784.5z"/>
							</g>
							<g>
								<path class="st3" d="M366.5,966.9l-3.2,22.3l4.7,0.9l2.5-6.8c0,0,6.2,12.8,23,16.1c34.2,6.8,5.5-27.4-12.9-37.2
									c0,0,25.1,15,15.1,21.3C380.2,993.6,366.5,966.9,366.5,966.9z"/>
							</g>
						</g>
						<g>
							<g>
								<path class="st2" d="M285.4,786.7l20.5,99.3l-52.3,42.4c0,0-12.2,37.9,3.7,41.4c18.3,4,9.5-34.6,9.5-34.6l68-39.4
									l-4.7-106.9L285.4,786.7z"/>
							</g>
							<g>
								<path class="st3" d="M253.6,928.4l-18.2,13.4l2.6,3.9l6.6-3c0,0-4.9,13.4,4.5,27.6c19.1,29,23.5-15.3,17.7-35.2
									c0,0,6.8,28.3-4.7,25.7C244.1,956.8,253.6,928.4,253.6,928.4z"/>
							</g>
						</g>
						<g>
							<polygon class="st2" points="279.5,581.5 286.6,617.2 314.6,656.7 325.4,609.8 318.3,574.1 							"/>
						</g>
						<path class="st4" d="M318.3,574.1l-38.8,7.4l5.3,26.4c7.4,0.1,15-0.7,22.3-2.7c5.7-1.5,11.1-3.6,16.1-6.3L318.3,574.1z"/>
						<g>
							<polygon class="st3" points="286.6,617.2 242.9,639.6 271.4,740.2 268.6,793.3 408.5,766.2 383.8,718.6 371.2,614 
								325.4,609.8 314.6,656.7 							"/>
						</g>
						<g>
							<polygon class="st4" points="325.4,609.8 334.3,610.6 318.2,674.8 278.6,621.6 286.6,617.2 314.6,656.7 							"/>
						</g>
						<g>
							<polygon class="st4" points="286.6,617.2 278.5,621.3 281.5,653.7 292.3,645.6 306.5,645.2 							"/>
						</g>
						<g>
							<polygon class="st4" points="325.4,609.8 334.3,610.6 344.2,641.6 331.1,638.2 317.7,643.1 							"/>
						</g>
						<g>
							<path class="st5" d="M327,689.7c0.6,3.1-1.4,6.1-4.5,6.7c-3.1,0.6-6.1-1.4-6.7-4.5c-0.6-3.1,1.4-6.1,4.5-6.7
								C323.4,684.6,326.4,686.6,327,689.7z"/>
						</g>
						<g>
							<g>
								<polygon class="st3" points="412.9,819 284,846.9 277.1,791.5 398.9,768.1 								"/>
							</g>
							<g>
								<polygon class="st6" points="277.1,791.7 279,806.7 400.2,772.7 398.9,768.1 								"/>
							</g>
						</g>
						<g>
							<path class="st5" d="M333.7,723.1c0.6,3.1-1.4,6.1-4.5,6.7c-3.1,0.6-6.1-1.4-6.7-4.5c-0.6-3.1,1.4-6.1,4.5-6.7
								C330,718,333.1,720,333.7,723.1z"/>
						</g>
						<g>
							<path class="st5" d="M340.3,756.6c0.6,3.1-1.4,6.1-4.5,6.7c-3.1,0.6-6.1-1.4-6.7-4.5c-0.6-3.1,1.4-6.1,4.5-6.7
								C336.7,751.5,339.7,753.5,340.3,756.6z"/>
						</g>
					</g>
				</g>
			</g>
			<g>
				<g>
					<g>
						<path class="st2" d="M132.3,682.3c-7.7-10.3-34.7-12.1-34.1,2c0.5,12.1,19.1,6.3,21.4,10L132.3,682.3z"/>
					</g>
					<g>
						<g>
							<polygon class="st4" points="135.4,682.7 132,679.7 118.2,694.2 121.7,697.3 							"/>
						</g>
					</g>
					<g>
						<g>
							<path class="st3" d="M262.1,647.9c-36.8,113.9-90.4,108.5-142.6,49.1l14.8-16.5c30.2,29.1,70,77.2,108.5-41L262.1,647.9z"/>
						</g>
					</g>
					<g>
						<g>
							<path class="st5" d="M129.6,702.7c-0.7-0.9-0.6-2.1,0.3-2.8c0.9-0.7,2.2-0.5,2.9,0.3c0.7,0.9,0.6,2.1-0.3,2.8
								C131.6,703.7,130.3,703.6,129.6,702.7z"/>
						</g>
					</g>
					<g>
						<g>
							<path class="st5" d="M124.3,698.1c-0.7-0.9-0.6-2.1,0.3-2.8c0.9-0.7,2.2-0.6,2.9,0.3c0.7,0.9,0.6,2.1-0.3,2.8
								C126.3,699.2,125.1,699,124.3,698.1z"/>
						</g>
					</g>
				</g>
			</g>
			<g>
				<g>
					<path class="st7" d="M229.1,480.3c0,0-47-43.4-83.8-9.7c-48.7,44.6,53.9,119.4-14.8,142c41.2,39.2,99.8-7.2,60.2-65.1
						C151.5,490.1,186,452.2,229.1,480.3z"/>
				</g>
				<g>
					<path class="st2" d="M353.1,491.2c13.5,46.1-0.8,90-40.9,103.8c-40.1,13.8-86.9-10.2-102.5-54.2s4.3-90.9,44.4-104.6
						C323.7,412.3,340,446.5,353.1,491.2z"/>
				</g>
				<g>
					<path class="st7" d="M228.6,489.2c0,0,68.1-3.6,122.3-28.8c-18.2-51.3-79.7-75.8-140.1-29.7c-66.8,51.1-6.2,135.9,33.1,157
						c3.7-25.4-1.1-50.5-1.1-50.5s-14.1,11.6-16.7-4.9c-1.8-11.8,13.3-9,13.3-9L228.6,489.2z"/>
				</g>
				<g>
					<g>
						<path class="st8" d="M328.2,546.3c-7.9,1-28.9,6.7-36.9,9.5c-0.8,0.3-1.3,1.2-0.9,2c1.7,4.4,8,16.9,24.5,12.9
							c15.4-3.8,15.4-18.2,15-23C329.9,546.9,329.1,546.2,328.2,546.3z"/>
					</g>
				</g>
			</g>
		</g>
		<g>
			<g>
				<g>
					<path class="st2" d="M489.5,606.2c2.6-12.6,26.3-25.6,31.8-12.5c4.6,11.2-14.7,13.8-15.2,18.1L489.5,606.2z"/>
				</g>
				<g>
					<g>
						<polygon class="st4" points="486.8,607.8 488.6,603.6 507.3,610.9 505.4,615.3 						"/>
					</g>
				</g>
				<g>
					<g>
						<path class="st3" d="M357.3,629.7c81.3,87.8,127.7,60.3,150-15.5l-20.4-8.7c-15.1,39.2-31,99.5-115.7,8.6L357.3,629.7z"/>
					</g>
				</g>
				<g>
					<g>
						<path class="st5" d="M500.5,623.5c0.3-1.1-0.4-2.2-1.5-2.4c-1.1-0.3-2.2,0.4-2.5,1.5c-0.3,1.1,0.4,2.2,1.5,2.4
							C499.1,625.2,500.2,624.6,500.5,623.5z"/>
					</g>
				</g>
				<g>
					<g>
						<path class="st5" d="M503.3,617.1c0.3-1.1-0.4-2.2-1.5-2.4c-1.1-0.3-2.2,0.4-2.5,1.5c-0.3,1.1,0.4,2.2,1.5,2.4
							C502,618.9,503.1,618.2,503.3,617.1z"/>
					</g>
				</g>
			</g>
		</g>
	</g>
	<g>
		<path class="st9" d="M992.9,954c-1,18.5-16.9,33.7-35.4,33.7H524.2c-18.5,0-32.9-15.2-31.9-33.7l32-610.5
			c1-18.5,16.9-33.7,35.4-33.7H993c18.5,0,32.9,15.2,31.9,33.7L992.9,954z"/>
		<path class="st10" d="M984.4,954c-1,18.5-16.9,33.7-35.4,33.7H515.7c-18.5,0-32.9-15.2-31.9-33.7l32-610.5
			c1-18.5,16.9-33.7,35.4-33.7h433.2c18.5,0,32.9,15.2,31.9,33.7L984.4,954z"/>
		<g>
			<path class="st10" d="M599.3,804.1c0.9,0,1.7-1,0.4-1C598.8,803.1,598,804.1,599.3,804.1L599.3,804.1z"/>
		</g>
		<g>
			<path class="st9" d="M749.8,362.9c-45.9-3.3-91.4-8.9-136.8-14.9c-31.9-4.2-64.2-6.6-96.1-11c-0.2,0.7-0.3,1.4-0.5,2.2
				c19.5,2.7,39.1,4.6,58.7,6.4c35.6,3.3,70.8,9.1,106.3,13.1c71.1,8,142.6,11,214.6,8.8c39.9-1.2,79.8-3.9,119.6-7.8l0.1-1.9
				C926.9,366.5,837.9,369.2,749.8,362.9z"/>
			<path class="st9" d="M816.2,342.5c35.2,2.7,70.5,4,106,3.3c31.5-0.7,62.8-3.5,94.1-7.4c-0.1-0.7-0.2-1.3-0.3-2
				c-26.6,3.3-53.2,5.8-80,6.9c-36.6,1.4-73,0.3-109.3-2.2c-36.2-2.5-72.2-7.7-108-12.9c-36.2-5.2-72.3-10.9-108-18.4h-11.2
				c35.9,7.8,72.3,13.7,108.7,19.1C744,334.3,780,339.7,816.2,342.5z"/>
			<path class="st9" d="M512.1,414.7l-0.1,2.2c56.6-8.7,113.6-12.4,170.5-13.9c72.4-1.9,144.9-1.6,217,1.7
				c37.9,1.7,75.7,4.5,113.2,8.5l0.1-2.2c-74.6-7.8-150-10.8-225.3-11.1C696,399.5,603.5,400.6,512.1,414.7z"/>
			<path class="st9" d="M749.4,429.3c-81.2,2.9-163.7,15.2-240.4,46.4l-0.1,2.1c121.2-49.9,255.3-51.8,381.7-45
				c40.4,2.2,80.8,6,120.6,12.2l0.1-2.1c-18.7-2.9-37.6-5.3-56.5-7.2C886.9,428.8,818,426.9,749.4,429.3z"/>
			<path class="st9" d="M684.5,525.5c-59.3-2.1-118.6-2.8-178.1-2l-0.1,2.1c13.7-0.2,27.4-0.3,41-0.4c74.5-0.2,148.7,2.6,223,5
				c29.5,1,59,2.3,88.4,4.3c29.2,2.1,58.2,5.7,87.1,9.7c19.9,2.8,39.7,5.9,59.5,9.2l0.1-2.3c-33.5-5.6-67.2-10.5-101-14.5
				C831.8,528.1,757.9,528.1,684.5,525.5z"/>
			<path class="st9" d="M684.8,458.2c-5.5,1.4-12.9,3-16.9,7.4c-4.6,4.9,6.9,9.9,9.5,11.3c10.9,5.8,23.5,8.5,35.7,10.5
				c15.6,2.6,31.4,4.8,47.3,6.1c17.7,1.5,35.5,2.3,53.2,3.9c18.1,1.6,36,4.3,53.9,6.4c36.1,4.4,72.2,8.5,108.3,12.4
				c10.5,1.1,20.9,2.2,31.4,3.3l0.1-2.4c-35.9-3.7-71.8-7.6-107.6-11.8c-35.8-4.2-71.5-9.4-107.7-11.8c-17.8-1.2-35.6-2.3-53.2-4.6
				c-14.1-1.9-28.5-3.8-42.1-7.6c-6.4-1.8-12.6-4.1-18.4-7.4c-1.8-1-8.1-3.9-7.2-6.9c1.5-5,15-6.8,19-7.8c22.2-5.2,44.2-7,66.7-7.4
				c74.3-1.3,147.8,10.7,219.7,24.9c10.8,2.1,21.7,4.4,32.5,6.7l0.1-2.7C956.4,469.2,903,459.2,849.1,454
				C795.3,448.7,738.7,444.4,684.8,458.2z"/>
			<path class="st9" d="M582.8,552.2c-25.9-1.9-51.8-1.9-77.8-1.5l-0.1,2.2c21.6-0.5,43.3-0.8,64.6,1c36.2,3,72.5,4.8,108.9,6.1
				c74.7,2.7,149.3,5.2,223.9,9.2c34,1.8,68,3.7,102,5.8l0.1-2.6c-97.9-5.8-195.8-10.9-293.9-13.9
				C667.9,557,625.3,555.3,582.8,552.2z"/>
			<path class="st9" d="M867.5,633.7c-36.9-2.3-73.7-5.6-110.5-9.2c-36-3.6-72.2-6.7-108.1-11c-49.1-5.9-97.9-13.4-146-23.5
				l-0.2,3.2c53.7,11.1,108.3,19.1,163.1,25.2c36.1,4,72.4,7.2,108.6,10.7c36.7,3.5,73.6,6.5,110.5,8.4c38.5,2,77.2,2.7,115.9,1.6
				l0.1-2.8C956.4,637.7,911.9,636.4,867.5,633.7z"/>
			<path class="st9" d="M861.2,680.9c-72.5-4.9-144.2-15.8-215.9-26C610.6,650,576,644,542,636.1c-13.8-3.2-27.4-7-40.9-11.1
				l-0.2,2.9c13.2,3.9,26.5,7.6,40,10.7c34.4,8,69.3,13.9,104.4,18.9c71.7,10.2,143.4,20.9,215.9,25.8c36.1,2.5,72.2,4.3,108.6,4
				c9.5-0.1,19-0.3,28.5-0.5l0.1-2.4c-8.5,0.2-17,0.4-25.4,0.5C935.6,685.4,898.4,683.5,861.2,680.9z"/>
			<path class="st9" d="M719.7,721.3c-54.5,6.8-109.2,17.2-162.5,32.6c-21.9,6.3-42.9,14.4-64.1,22.7l-0.1,2.6
				c3.8-1.5,7.7-3.1,11.5-4.6c32.7-13.1,66.7-22.6,100.8-30.5c70.4-16.2,141.9-25.2,213.3-29c59.5-3.2,119-2.6,178.2,0.8l0.1-2.7
				C904.9,708,812.1,709.8,719.7,721.3z"/>
			<path class="st9" d="M613.5,705c13.9-4.4,29-6.4,41.8-14.2c1.1-0.7,0.2-1.3-0.6-1.5c-5.8-1.2-11.5-0.5-17.4-0.1
				c-7,0.5-14.1-0.6-20.9-1.7c-13.1-2-26.2-4.1-39.2-6.4c-26.5-4.7-52.6-11.5-77.9-20.1l-0.1,2.7c24.1,8.1,48.9,14.4,74.1,19.1
				c13.1,2.4,26.3,4.2,39.5,6.4c5.9,1,11.9,1.7,17.9,2c6.6,0.3,13.2-1,19.7-0.3c-12.8,7.1-28.3,9-42,13.5
				c-15.9,5.2-31.8,10-47.8,14.5c-21.6,6-43.4,11.6-65.2,16.9l-0.1,2.1c23-5.6,45.9-11.5,68.7-17.8C580.5,715.5,597,710.3,613.5,705
				z"/>
			<path class="st9" d="M831.8,764.4c-70.4,0.8-141.1,8.2-210.8,22.3c-18.2,3.7-36.3,7.9-54.3,12.8c-18.6,5.1-36.7,11.6-55.1,17.6
				c-7,2.3-14,4.5-21,6.9l-0.2,3c7.1-2.4,14.2-4.7,21.2-7c16.2-5.2,32.2-11.1,48.6-15.8c17.4-5,35-9.3,52.7-13.1
				c70.4-15.1,142-22.6,213.3-23.8c37.2-0.6,74.1,0.7,110.9,4.4c18.9,1.9,37.6,4.4,56.3,7.2l0.2-3.1c-17.9-2.7-35.9-5-54-6.9
				C904,765.2,868,764,831.8,764.4z"/>
			<path class="st9" d="M670.3,830.7c-61.6,4.3-124,14.7-182,38.4l-0.2,2.9c45.5-18.9,94-29.4,142.4-35.1
				c71.3-8.4,142.9-7.7,213.8-3.6c48.7,2.8,97.4,6.6,145.7,12l0.1-2.8c-35.3-3.9-70.8-6.9-106.3-9.4
				C812.9,828.2,741.9,825.8,670.3,830.7z"/>
			<path class="st9" d="M806.5,892.3c-35.7-1.8-71.4-3.6-107.3-2.7c-71.9,1.7-144,12.6-213.7,33.6l-0.1,1.9
				c53.1-16.1,107.7-26.2,162.5-30.9c72.3-6.2,144.5-1.4,216.1,3.3c41,2.7,82,6.4,122.7,11.3l0.1-1.9c-24.4-3-49-5.4-73.6-7.5
				C877.8,896.3,842.1,894.1,806.5,892.3z"/>
			<path class="st9" d="M863,969.3c-36.2-2.4-72.5-4.2-108.8-5.2c-53.9-1.5-107.7-1.9-161.8,1.2c-34.2,1.9-68.4,5.1-102.5,9.5
				c0.5,0.7,1.1,1.4,1.6,2.1c126.9-15.9,254.1-13.4,380.5-4.6c26.2,1.8,52.4,4,78.5,6.4c6.5,0.6,13,1.3,19.5,2
				c0.8-0.6,1.6-1.2,2.3-1.9c-0.1,0-0.3,0-0.4-0.1C935.9,974,899.3,971.7,863,969.3z"/>
		</g>
		<path class="st6" d="M972.5,360.4H578.4l-31.3,596.9c0,0,112.3-11.1,197.6-11.1c85.3,0,196.5,11.1,196.5,11.1L972.5,360.4z"/>
		<polygon class="st4" points="966.1,352.6 565.2,352.6 534.2,945 935,945 		"/>
		<path class="st6" d="M764.6,309.8l-8.3,10.7l-92.7,21.9c-4.4,1-8.8,4.1-11.4,8.1l-26.6,39.6c-4.9,7.3-2.3,14.5,5.3,14.5h268
			c7.6,0,16-7.2,16.9-14.5l5-39.6c0.5-4-1.4-7.1-5-8.1l-75.3-21.9l0.2-10.7H764.6z"/>
		<g>
			<path class="st11" d="M895.7,339l-82.9-21.9l-7.4-22.6c9.9-9.1,16.4-21.9,16.8-36.1c0.7-24.9-18.1-45.7-42.9-47.2
				c-28.1-1.7-52.6,20.6-54.1,48.4c-0.7,13.8,4.4,26.2,13.1,35l-9.8,22.6L643.5,339c-4,1-7.3,4.1-8.6,8.1L622,386.8
				c-2.4,7.3,2.8,14.5,10.3,14.5h268c7.6,0,13.5-7.2,11.9-14.5l-8.7-39.6C902.6,343.1,899.6,340.1,895.7,339z M775.4,227.4
				c6.2,0,11,5,10.6,11.2c-0.3,6.2-5.6,11.2-11.8,11.2c-6.2,0-11-5-10.6-11.2C763.9,232.4,769.2,227.4,775.4,227.4z"/>
		</g>
		<g>
			<path class="st12" d="M892.5,339l-82.9-21.9l-7.4-22.6c9.9-9.1,16.4-21.9,16.8-36.1c0.7-24.9-18.1-45.7-42.9-47.2
				c-28.1-1.7-52.6,20.6-54.1,48.4c-0.7,13.8,4.4,26.2,13.1,35l-9.8,22.6L640.3,339c-4,1-7.3,4.1-8.6,8.1l-12.9,39.6
				c-2.4,7.3,2.8,14.5,10.3,14.5h268c7.6,0,13.5-7.2,11.9-14.5l-8.7-39.6C899.4,343.1,896.4,340.1,892.5,339z M772.2,227.4
				c6.2,0,11,5,10.6,11.2c-0.3,6.2-5.6,11.2-11.8,11.2c-6.2,0-11-5-10.6-11.2C760.7,232.4,766,227.4,772.2,227.4z"/>
		</g>
	</g>
	<g>
		<g>
			<g>
				<g>
					<path class="st13" d="M89.4,581.8c0,0-6.9,5.5-12.2,6.4c-5.3,0.8-13.5-2.2-13.5-2.2l59.1,368l25.7-4.1L89.4,581.8z"/>
					<path class="st10" d="M63.7,585.9c0,0-2.8,3.2-6.2,3.8c-3,0.5-6.2-1.1-6.9-1.5c0,0.5,0,1,0.1,1.5c0,0,54.9,341.9,58.9,366.4
						l13.3-2.1L63.7,585.9z"/>
					<path class="st14" d="M70.5,537.4c-0.5-0.6-1-0.8-1.5-0.8c-0.5,0.1-0.9,0.5-1.2,1.2l-5.5,15.3l18.1-2.9L70.5,537.4z"/>
					<path class="st15" d="M163.6,958.4l-52.3,8.4c0.4,2.2,1.3,7.9,1.3,8c2.3,14.4,15.2,20,29.7,17.6c14.4-2.3,25-11.6,22.7-26.1
						C164.9,966.3,164,960.6,163.6,958.4z"/>
					<path class="st4" d="M161.9,947.6l-52.3,8.4c0.7,4.5,1.3,8.2,1.7,10.8l52.3-8.4C163.2,955.8,162.6,952.1,161.9,947.6z"/>
					<path class="st16" d="M100.9,576.4l-20.4-26.2l-18.1,2.9l-11.2,31.2c-0.4,1-0.6,2.5-0.6,3.8c0.7,0.4,3.9,2,6.9,1.5
						c3.5-0.6,6.2-3.8,6.2-3.8s8.3,3.1,13.5,2.2c5.3-0.8,12.2-6.4,12.2-6.4s3.6,2.2,7.1,1.6c3-0.5,5.5-3,6.1-3.6
						C102.2,578.6,101.5,577.2,100.9,576.4z"/>
					<path class="st10" d="M89.4,581.8l59.1,368l13.3-2.1c-3.9-24.5-58.9-366.4-58.9-366.4c-0.1-0.4-0.2-0.9-0.4-1.4
						c-0.6,0.6-3.1,3.1-6.1,3.6C93.1,584,89.4,581.8,89.4,581.8z"/>
				</g>
			</g>
		</g>
	</g>
	<path class="st7" d="M275.2,519.4c1.6,6.2,0.5,11.9-2.5,12.7s-6.6-3.7-8.2-9.9c-1.6-6.2-0.5-11.9,2.5-12.7
		C269.9,508.7,273.6,513.2,275.2,519.4z"/>
	<path class="st7" d="M342.5,502.3c1.6,6.2,0.5,11.9-2.5,12.7c-3,0.8-6.6-3.7-8.2-9.9c-1.6-6.2-0.5-11.9,2.5-12.7
		C337.2,491.6,340.9,496.1,342.5,502.3z"/>
</g>
</svg>
